<svg id="Слой_1" data-name="Слой 1" xmlns="http://www.w3.org/2000/svg" viewBox="0 0 102 102"><defs><style>.cls-1,.cls-3{fill-rule:evenodd;}.cls-2,.cls-3{fill:none;stroke:#000;stroke-miterlimit:10;stroke-width:2px;}</style></defs><path class="cls-1" d="M48.1,58a6.55,6.55,0,0,1,1.39.41,145.32,145.32,0,0,1,22-4.42l-1.93-.22A148.8,148.8,0,0,0,48,58l.15,0ZM13.92,77.09h1.13V79a1.64,1.64,0,0,1-1.13-1.87ZM37,67.54a1.11,1.11,0,0,1-1-.64.66.66,0,0,0,.63-.66.68.68,0,0,0-.39-.61A1.11,1.11,0,1,1,37,67.54Zm42.19-7.46c1.67-1.33,2.73-2.77,2.37-3.22s-2,.25-3.67,1.57-2.73,2.77-2.38,3.23,2-.26,3.68-1.58Zm2.9-6.88a.64.64,0,1,1-.64.64.64.64,0,0,1,.64-.64Zm-4.41-4.83H76.8c.42-3.44-.41-5.91-2.29-7.57l.3-.72c2.37,1.77,3.11,4.22,2.9,8.29Zm-62,29h1.42v1.84a1.58,1.58,0,0,1-1.42-1.84Zm36-21.82.47-.12c1.87-3.37,6.82-7.72,12.63-12.34l.2.12.06.1a1.5,1.5,0,0,0-.14.64,1.6,1.6,0,0,0,1.52,1.6v0c-4.42,3.21-8.38,6-10.91,9l.57-.13c2.34-2.59,6.17-5.45,10.56-8.54l.1.15a1.57,1.57,0,0,0-.28.9,1.62,1.62,0,0,0,1,1.51c-3.37,1.93-6.18,3.38-8.25,5.25l1.11-.25A49.49,49.49,0,0,1,68,48.88l0,.12a1.57,1.57,0,0,0-.28.9,1.6,1.6,0,0,0,1.31,1.58l.08.18c7-1.5,11.33-2.43,15.28-8.47,2.41-4.88.89-8.69-4.22-11.51a22,22,0,0,0-2.14-.89,27.88,27.88,0,0,1,4.52,3.4,3.74,3.74,0,0,0,.05,1.93c.28,1.12.82,1.93,1.22,1.8s.42-.66.36-1.39c1.25,2.93-.2,6.27-4.55,10.74C81.13,34.68,72.79,36.88,70.31,34c-2.24-.53-3.58-1.26-4-2.18-2.26-.14-3.51-.92-3.93-2.23l-2.15-.19-.69-.62,1.14-.17a15.94,15.94,0,0,0-8.14-1.57c5.84-1.82,9.84,2.55,21.13,3h.09a2.28,2.28,0,0,0-.92-2.28c3.53-2,8.74,1.22,12.22-2.23,1.78,2.43,2.11,5.71,1.13,9.78L86,35.14a11.14,11.14,0,0,1,3,6.32h0c-.82-1.68-1.14-2.25.07.47h0a18.17,18.17,0,0,1-3.51,12,.52.52,0,0,1-.48.31.52.52,0,0,1-.52-.52.94.94,0,0,1,.2-.42,16.76,16.76,0,0,0,3.4-11.62l-.69-.21a4,4,0,0,1,.2,1.28c0,1.05-.34,1.91-.76,1.91-.25,0-.47-.31-.61-.79a15.1,15.1,0,0,1-.55,1.56.42.42,0,0,1,.16,0c.38,0,.61.7.52,1.46s-.46,1.34-.84,1.3S85,47.58,85,46.91A17.34,17.34,0,0,1,83.69,49a.84.84,0,0,1,.67-.12c.44.18.14,1.16-.67,2.19s-1.83,1.72-2.27,1.54-.24-.76.19-1.5L79,52.89a1.3,1.3,0,0,1,.85.41,2.1,2.1,0,0,1-3,2.69c-.48-.53,0-2.42-1.58-1a1.19,1.19,0,0,0-.32,1.61.9.9,0,0,0,.88.25,5.3,5.3,0,0,1-2.71,3.31c-2.57,1.54-5.79,1.73-7.2.41a2.08,2.08,0,0,1-.64-1.24h0a5.59,5.59,0,0,0-4-.88c3,1.83-7,3.17-9.59,1.4a7.69,7.69,0,0,1,2,3.32h0c8.14-1.19,13.21,1,23.58.78,2.27.12,3.78-1,4.79-3.07l.31.73C80.2,64.46,77,66.66,71,67l1.24,0a9.28,9.28,0,0,1-1.34,6c-4.57-.09-7.26-.79-9.11-1.76h0c-6.24,2.2-11.48,3.25-15,2.32l1.76-.6a7.66,7.66,0,0,0,4-5.49,7.58,7.58,0,0,0-2.9-7.52l-.85.12a18.72,18.72,0,0,0-10.21,7.17l-.15.07a2.35,2.35,0,0,0,.07-.54,1.66,1.66,0,1,0-3.29,0A2.07,2.07,0,0,0,35.65,68h0c-4,.78-7.58,1.91-8.65,2.77-.63.43-.51.63.36.5a36.14,36.14,0,0,1,5.86-1.7,43.39,43.39,0,0,1,7.86-1.06c.53,0,.68.21.12.27a77.57,77.57,0,0,0-8.92,1.41h0a20.52,20.52,0,0,0-6.43,2.58c-.27.27-.21.46,0,.62l.65-.14c3.07-.71,9.43-2.56,11.3-2.21h0c0,.6,1.62.37,1.83.34h0A10.94,10.94,0,0,0,41.19,71a5.55,5.55,0,0,0,2.9-1.62l.08,0c1.51,3.19-14.38,6.17-18.25,8.9,3.89-.06,6.24-.81,7.58-2,9.19.65,16.85-7.26,13.2-11.75-1-1.57-.26-1.58.86-.43,3.69,4.35-2.94,12.49-13.23,13.47l-8.5,1.89h0c-4.26,1-9.94,1.82-12.35.82-.82-.81-.77-1.16.26-1.48.08,2,6,.48,13.71-2.41l-3.39-.78v1.39H21V75.07c-2.64.48-5.76.23-6.49-1.74C18.75,68,26.22,63.81,36,60.3A58.66,58.66,0,0,0,18.79,71.13c-.49,1.27.24,1.36,1.74.09C26.46,65,33.87,61.42,41.3,58.5c2.54-.79,5.21-1.56,8-2.29,2.59-5.23,7-9.6,13.17-14.61l.11.07a1.6,1.6,0,0,0,1.59,1.57C58.65,47.42,54,51.56,51.71,55.58ZM41.5,14.65c-.23,4.09,2.43,7,3.83,10.47-5.28,1.12-12.22,10.15-17,10.19C34,39.56,42.43,34,51.79,32.1,71.36,34,79.14,39.23,78.54,47.72l.53-.69C77.82,28.36,50.15,35.55,51.2,27c.55-1.28,2-1.6,4.31-1.12h0a17.51,17.51,0,0,1-2.93-4,32.07,32.07,0,0,0,3.68,4.22h0c.22.05.44.12.67.19C50.5,15.87,44.47,9.52,38.76,5.94c-.07,3.41.51,6.49,2.74,8.71Zm8.78,15.44a28.16,28.16,0,0,0-11.17,4.57c4-1.81,7.61-3.17,11.5-3.39l-.33-1.18Zm21.5,2.07a.37.37,0,0,0-.37.36.38.38,0,0,0,.37.37.37.37,0,0,0,.36-.37.36.36,0,0,0-.36-.36Zm2.51,1.13a.37.37,0,0,0-.36.37.36.36,0,0,0,.36.36.37.37,0,0,0,.37-.36.38.38,0,0,0-.37-.37Zm2.44,2.09a.36.36,0,0,0-.36.36.37.37,0,0,0,.36.37.38.38,0,0,0,.37-.37.37.37,0,0,0-.37-.36Zm2,2.18a.37.37,0,0,0,0,.73.37.37,0,1,0,0-.73ZM75.66,29.2c.1,0,.14-.22.1-.46s-.15-.41-.25-.4-.13.22-.09.46.15.41.24.4Zm1.31.24c.12,0,.17-.29.12-.59s-.19-.53-.31-.51-.17.28-.12.58.2.54.31.52Zm1.41.58c.16,0,.23-.37.16-.77s-.25-.7-.41-.67-.22.37-.15.77.25.7.4.67Zm1.24.38c.18,0,.26-.44.18-.91s-.29-.83-.48-.79-.26.44-.18.91.3.82.48.79Zm1.26.48c.35-1,.26-1.74-.26-2.13l-.27-.14a2.09,2.09,0,0,1,.1,2.27Zm1.59.68a4.58,4.58,0,0,0-.4-3l-.33-.05a5.4,5.4,0,0,1,.31,3Zm1.42,1.11a8,8,0,0,0-.48-4.85L83,28.1a8.38,8.38,0,0,1,.46,4.33l.45.24Zm1.23,1.17c.64-3,.41-5.58-.51-6.75l-.4.44c1,1.52,1.1,3.17.55,6l.36.31ZM55.25,70.5l.08-2.24c4.75-5.17,13.86-2.07,18.45-3-6.41,0-9.9-1.06-14.42.11l-4.48,1.34c1.78-2.94,6.91-3.08,13.26-2.21-11.13-2.54-12.27,1.21-14.09.28a8.2,8.2,0,0,1-.1,2.31,8,8,0,0,1-3.26,5.16h0a41.37,41.37,0,0,0,18-5.19c-7.28.07-11.06-.19-13.47,3.47Zm9.47-.24-.53.46,5.42,1.47.37-.51-5.26-1.42Zm2.6-1.17-.52.46,3.41,1,.55-.52-3.44-.93Zm2.57-1.26-.53.46,1.41.41.58-.41-1.46-.46ZM47.7,59a7.16,7.16,0,0,0-.7-.17,6.54,6.54,0,0,0-1.32-.11c-6.66,2.18-11.57,4.94-14.1,8.49l1.78.11c1.25-2.9,6.48-5.83,14.34-8.32Zm35.8-2.11-1.12,3.29L83,60l1.6-3.45c-.53-.22-.87-.18-1.11.3ZM26.56,69.34c-.47.14-.82.38-.77.54s.46.17.94,0,.81-.38.77-.54-.47-.16-.94,0ZM16.17,73.47l-.27.22c1,1.08,2.8,1.14,5.59,0l-.18-.52c-2.33.93-4.12,1.14-5.14.32ZM24,74.82,24,74l-.07,0a8.28,8.28,0,0,1-1.85.74Zm3.9,1.34c1.09-.41,2.2-.84,3.34-1.3H27.86l0,0,0,1.25Zm3.63-1.42c1.77-.71,3.59-1.46,5.42-2.24H35l-.11.86L31.5,73.2v1.54ZM81.83,48.4a.49.49,0,0,0-.48.48.48.48,0,0,0,.48.47.47.47,0,0,0,.47-.47.48.48,0,0,0-.47-.48Zm-4,2.6a.48.48,0,1,0,0,1,.48.48,0,0,0,0-1ZM73.6,52a.48.48,0,1,0,.47.48A.47.47,0,0,0,73.6,52Zm-1.27,3.55a.68.68,0,1,0,.67.68.68.68,0,0,0-.67-.68Zm-5.22,1.57a.58.58,0,0,1,0,1.16.58.58,0,0,1,0-1.16Z" transform="translate(-0.06 -0.65)"/><text x="-0.06" y="-0.65"/><path d="M18.57,31.72a.84.84,0,0,1-.6-.12,3,3,0,0,1-.54-.41c-.19-.18-.44-.41-.73-.71s-.55-.54-.75-.72a3.27,3.27,0,0,0-.6-.44,1,1,0,0,0-.63-.17.72.72,0,0,0-.51.41A1.65,1.65,0,0,0,14,30l3.72,3.31-.92,1.62-6.71-6a3,3,0,0,0,.28,1.71,3.16,3.16,0,0,0,1.29,1.27,1.64,1.64,0,0,0,.6.23.47.47,0,0,0,.16,0l.09,0a1.61,1.61,0,0,1-.75.76,1.17,1.17,0,0,1-1-.18,1.91,1.91,0,0,1-.64-.57,3,3,0,0,1-.44-.84,4.43,4.43,0,0,1-.22-1,5.1,5.1,0,0,1,.9-3.62l2.94,2.63a8.72,8.72,0,0,1-1-1.47,8.21,8.21,0,0,1-.6-1.25,3.39,3.39,0,0,1-.27-1.24,2,2,0,0,1,.23-1,1.22,1.22,0,0,1,.24-.3,1,1,0,0,1,.29-.19.82.82,0,0,1,.71.07.93.93,0,0,1,.48.58.87.87,0,0,1-.11.6.76.76,0,0,1-.83.4,4,4,0,0,0,.39,1.6A10.84,10.84,0,0,0,13.89,29L14,28.7l.12-.21a1.7,1.7,0,0,1,1-.91,1.29,1.29,0,0,1,1,.2,4.1,4.1,0,0,1,.63.45c.21.18.45.41.72.68s.53.53.7.68a2.43,2.43,0,0,0,.48.35,1.07,1.07,0,0,0,.53.15.73.73,0,0,0,.46-.16,4.8,4.8,0,0,1-.44,1.22A1.09,1.09,0,0,1,18.57,31.72Z" transform="translate(-0.06 -0.65)"/><path d="M20.48,28.09a2.22,2.22,0,0,1-1.57-.66,4.94,4.94,0,0,1-.66-.7,6.41,6.41,0,0,1-.57-.86,4.78,4.78,0,0,1-.63-2A2.64,2.64,0,0,1,17.69,22a1.38,1.38,0,0,1,.66-.47.53.53,0,0,1,.53.11l.07.07-.43-.56,1.23-1.4,2.69,3.58a1.19,1.19,0,0,0,.28.32.49.49,0,0,0,.77,0,.86.86,0,0,0,.15-.72,2.45,2.45,0,0,0-.38-.87l.36-.41a5.11,5.11,0,0,1,.62,1.66,2.44,2.44,0,0,1-.11,1.15,2.05,2.05,0,0,1-.42.71,1.27,1.27,0,0,1-.8.47,1.43,1.43,0,0,1-.93-.29,3.4,3.4,0,0,1,.1,1.11,1.85,1.85,0,0,1-.47,1.12A1.58,1.58,0,0,1,20.48,28.09Zm.88-2.33a1.07,1.07,0,0,0,.05-.37,1.64,1.64,0,0,0-.34-.9L19.28,22.1a.4.4,0,0,0-.13-.07A.53.53,0,0,0,19,22a.52.52,0,0,0-.41.2.87.87,0,0,0-.2.49,1.87,1.87,0,0,0,.05.65,4.84,4.84,0,0,0,.67,1.42,6.07,6.07,0,0,0,.47.63,5.89,5.89,0,0,0,.48.5,1.23,1.23,0,0,0,.82.39.34.34,0,0,0,.2-.06.83.83,0,0,0,.17-.16A.67.67,0,0,0,21.36,25.76Z" transform="translate(-0.06 -0.65)"/><path d="M27.31,20.78a2,2,0,0,1-.79,1.46,1.64,1.64,0,0,1-1.34.37,2.22,2.22,0,0,1-1.33-1,5.81,5.81,0,0,1-1.07-2.82,3.31,3.31,0,0,1,.15-1.55A2.53,2.53,0,0,1,23.84,16c.57-.42,1-.44,1.28-.06l-1.25-2.78,1.29-1.26,1.26,2.89a2.22,2.22,0,0,1,.89-1.34c.85-.63,1.67-.39,2.48.7a7.38,7.38,0,0,1,1.06,2,3.79,3.79,0,0,1,.15,2,2.74,2.74,0,0,1-1.11,1.64,1.11,1.11,0,0,1-1.12.25L30.1,23,28.91,24.4Zm-.71-.27a1.25,1.25,0,0,0,.13-.45,1.4,1.4,0,0,0-.06-.62l-1.35-3a.5.5,0,0,0-.71,0,1,1,0,0,0-.35.77,3.6,3.6,0,0,0,.1,1.08,5.76,5.76,0,0,0,.28.87A6.46,6.46,0,0,0,25,20l.24.36a1.64,1.64,0,0,0,.49.48.67.67,0,0,0,.29.09.53.53,0,0,0,.29-.12A.93.93,0,0,0,26.6,20.51ZM29.42,18a3.46,3.46,0,0,0-.29-1.42,6.86,6.86,0,0,0-.79-1.43c-.43-.57-.81-.73-1.16-.48a1.08,1.08,0,0,0-.34,1l1.53,3.36a.46.46,0,0,0,.57-.05A1.23,1.23,0,0,0,29.42,18Z" transform="translate(-0.06 -0.65)"/><path d="M33.44,17a2.08,2.08,0,0,1-1.16-1.19A5,5,0,0,1,32,15a8.1,8.1,0,0,1-.2-1,7.14,7.14,0,0,1,0-1.13,3.84,3.84,0,0,1,.22-1,2.78,2.78,0,0,1,1.52-1.67,1.51,1.51,0,0,1,1.2-.14,1.22,1.22,0,0,1,.61.65,2.22,2.22,0,0,1,.22,1,2.58,2.58,0,0,1-.23,1.05,3.27,3.27,0,0,1-.62.94,3.41,3.41,0,0,1-.9.7c.08.21.14.37.2.49.18.38.37.61.58.68a.93.93,0,0,0,.72-.1,2.22,2.22,0,0,0,1-.89,3.4,3.4,0,0,0,.27-.54c.07-.19.16-.44.24-.72l.4-.19a5.55,5.55,0,0,1-.57,2.09A3.49,3.49,0,0,1,35,16.77,2.12,2.12,0,0,1,33.44,17Zm.7-3.68a2.17,2.17,0,0,0,.34-.7,2.32,2.32,0,0,0,.09-.79,2.07,2.07,0,0,0-.19-.75.82.82,0,0,0-.23-.33.27.27,0,0,0-.29,0,.7.7,0,0,0-.33.41,3,3,0,0,0-.14.76,4.84,4.84,0,0,0,0,.92,6.48,6.48,0,0,0,.17,1A1.78,1.78,0,0,0,34.14,13.29Z" transform="translate(-0.06 -0.65)"/><path d="M55.74,96.68a1,1,0,0,1-.48-.34,1,1,0,0,1-.2-.53,1.64,1.64,0,0,1,.08-.65,1.15,1.15,0,0,0,.44.32.89.89,0,0,0,.46.06.84.84,0,0,0,.57-.26,1.5,1.5,0,0,0,.35-.59,2.7,2.7,0,0,0,.15-.73,4.17,4.17,0,0,0,0-.79,2,2,0,0,0-.36-1.1,1.1,1.1,0,0,0-1-.36,1.33,1.33,0,0,0-.6.18l-.57,4.82-1.86.18,1-8.77a1.75,1.75,0,0,0-.68.21,1.28,1.28,0,0,0-.47.48,3.62,3.62,0,0,0-.27,2.13,1.68,1.68,0,0,0,.16.63.91.91,0,0,0,.07.14.18.18,0,0,1,0,.09,1.63,1.63,0,0,1-1.05-.18,1.26,1.26,0,0,1-.45-.94,3.31,3.31,0,0,1,.13-1.29,3,3,0,0,1,.66-1.12,3.74,3.74,0,0,1,1.31-.89,6.64,6.64,0,0,1,2-.46l.49,0H56l1,0c.22,0,.46,0,.71,0a4,4,0,0,0,1.15-.27s0,.13,0,.26,0,.27,0,.4a2.75,2.75,0,0,1-.1.34,1,1,0,0,1-.91.66,10.37,10.37,0,0,1-2.2,0l-.35,3c.25-.1.47-.18.67-.24a4.1,4.1,0,0,1,.61-.11,2.07,2.07,0,0,1,1.72.51,2.43,2.43,0,0,1,.47.72,3.7,3.7,0,0,1,.22.94,4.32,4.32,0,0,1,0,.72,5.19,5.19,0,0,1-.14.77,3.78,3.78,0,0,1-.3.79A3.18,3.18,0,0,1,58,96a2.3,2.3,0,0,1-1.53.76A1.67,1.67,0,0,1,55.74,96.68Z" transform="translate(-0.06 -0.65)"/><path d="M61.66,95.34a2.25,2.25,0,0,1-1-1.39,5.21,5.21,0,0,1-.19-.94,5.92,5.92,0,0,1,0-1,4.72,4.72,0,0,1,.53-2,2.59,2.59,0,0,1,1.55-1.29,1.44,1.44,0,0,1,.8-.06.55.55,0,0,1,.39.38l0,.09-.07-.7,1.78-.55.4,4.47a2.3,2.3,0,0,0,.07.42.48.48,0,0,0,.67.37.8.8,0,0,0,.51-.53,2.32,2.32,0,0,0,.13-.94l.52-.16a4.76,4.76,0,0,1-.34,1.74,2.54,2.54,0,0,1-.7.93,2.12,2.12,0,0,1-.73.38,1.23,1.23,0,0,1-.93,0,1.4,1.4,0,0,1-.63-.73,3.46,3.46,0,0,1-.5,1,2,2,0,0,1-1,.7A1.65,1.65,0,0,1,61.66,95.34Zm2-1.52a1.16,1.16,0,0,0,.24-.29,1.66,1.66,0,0,0,.18-1l-.26-3a.66.66,0,0,0-.08-.13.46.46,0,0,0-.58-.18.89.89,0,0,0-.43.31,1.71,1.71,0,0,0-.29.59,4.49,4.49,0,0,0-.18,1.55,5.16,5.16,0,0,0,.07.79,3.75,3.75,0,0,0,.14.67,1.18,1.18,0,0,0,.49.76.34.34,0,0,0,.21.06.93.93,0,0,0,.22,0A.81.81,0,0,0,63.64,93.82Z" transform="translate(-0.06 -0.65)"/><path d="M67,86.62l1.66-.85.26,1A2.27,2.27,0,0,1,70,85.55a1.44,1.44,0,0,1,1.2-.12,2.37,2.37,0,0,1,1.14,1.21A7.28,7.28,0,0,1,73,88.5a4.23,4.23,0,0,1,0,2,2.65,2.65,0,0,1-1.36,1.6,1.74,1.74,0,0,1-.72.21.79.79,0,0,1-.47-.12l.84,3.11-1.52,1.3Zm4.39,3.66a4.18,4.18,0,0,0-.13-1.51,6.35,6.35,0,0,0-.51-1.36,1.37,1.37,0,0,0-.62-.7.56.56,0,0,0-.45.05.8.8,0,0,0-.34.36,1.28,1.28,0,0,0-.16.61l1,3.56a.46.46,0,0,0,.24.12.62.62,0,0,0,.33-.08A1.28,1.28,0,0,0,71.35,90.28Z" transform="translate(-0.06 -0.65)"/><path d="M72.59,83.53l1.49-1.12.41.91A2.26,2.26,0,0,1,75.37,82a1.41,1.41,0,0,1,1.16-.32,2.34,2.34,0,0,1,1.32,1,7,7,0,0,1,1,1.72,4.15,4.15,0,0,1,.31,2A2.6,2.6,0,0,1,78,88.21a1.7,1.7,0,0,1-.68.33.79.79,0,0,1-.48,0l1.35,2.92L77,93Zm4.93,2.87a4.1,4.1,0,0,0-.38-1.46,6,6,0,0,0-.73-1.26,1.44,1.44,0,0,0-.73-.59.59.59,0,0,0-.43.12.87.87,0,0,0-.28.42,1.42,1.42,0,0,0,0,.63l1.55,3.35a.46.46,0,0,0,.26.07.59.59,0,0,0,.31-.13A1.26,1.26,0,0,0,77.52,86.4Z" transform="translate(-0.06 -0.65)"/><path d="M82,84.47a2.25,2.25,0,0,1-1.54-.72,5.6,5.6,0,0,1-.63-.72,5.33,5.33,0,0,1-.54-.88,4.59,4.59,0,0,1-.55-2,2.6,2.6,0,0,1,.7-1.89,1.51,1.51,0,0,1,.67-.45.56.56,0,0,1,.53.14l.07.06-.41-.57,1.28-1.36,2.56,3.69a1.58,1.58,0,0,0,.27.32.47.47,0,0,0,.76,0,.85.85,0,0,0,.18-.72,2.27,2.27,0,0,0-.35-.88l.37-.4a5.06,5.06,0,0,1,.57,1.68,2.42,2.42,0,0,1-.15,1.15,2.1,2.1,0,0,1-.45.7,1.21,1.21,0,0,1-.81.43,1.36,1.36,0,0,1-.92-.32,3.65,3.65,0,0,1,.06,1.12,1.91,1.91,0,0,1-.51,1.1A1.6,1.6,0,0,1,82,84.47Zm1-2.29A1.16,1.16,0,0,0,83,81.8a1.61,1.61,0,0,0-.31-.91L81,78.44a.49.49,0,0,0-.13-.08l-.17,0a.51.51,0,0,0-.42.18.89.89,0,0,0-.22.48,1.87,1.87,0,0,0,0,.66,5,5,0,0,0,.62,1.44,6.22,6.22,0,0,0,.45.65,3.91,3.91,0,0,0,.46.51,1.2,1.2,0,0,0,.8.43.37.37,0,0,0,.21-.06l.17-.15A.59.59,0,0,0,83,82.18Z" transform="translate(-0.06 -0.65)"/><path d="M89.24,75.78a1.38,1.38,0,0,1-1.1-.24,4.86,4.86,0,0,1-.51-.42l-.11-.1c-.06-.06-.11-.09-.13-.12a1.56,1.56,0,0,0-.2-.16c-.34-.22-.61-.2-.79.08a.64.64,0,0,0-.09.36v.25l0,.34,2,2-1,1.56-4.67-4.67,1-1.56,1.84,1.86c-.08-.39-.17-.77-.26-1.14l0-.14c-.18-.71-.29-1.19-.35-1.44a2.4,2.4,0,0,1,0-1,1.43,1.43,0,0,1,.19-.42.88.88,0,0,1,.56-.43,1,1,0,0,1,1,.66.8.8,0,0,1-.14.63A.69.69,0,0,1,86,72a.6.6,0,0,1-.45-.11,1.86,1.86,0,0,0,0,.47c0,.16.06.34.1.54l0,.18.09.35a4.31,4.31,0,0,1,.13.54,2.93,2.93,0,0,1,.26-.48A1.28,1.28,0,0,1,87,72.8a1.25,1.25,0,0,1,.89.26,3.82,3.82,0,0,1,.48.4l.24.23.26.2a.44.44,0,0,0,.68-.18.62.62,0,0,0,.13-.32.64.64,0,0,0,0-.33,2.17,2.17,0,0,0-.16-.37l-.31-.5.3-.45q1.56,2,.72,3.27A1.62,1.62,0,0,1,89.24,75.78Z" transform="translate(-0.06 -0.65)"/><path d="M95.23,72.14a1.35,1.35,0,0,1-.4.32,1.15,1.15,0,0,1-.49.13,1.22,1.22,0,0,1-.54-.11,1.54,1.54,0,0,1-.89-1.13,4.86,4.86,0,0,1,0-1.56l-.58-.42a2.14,2.14,0,0,1,.22,1,1.9,1.9,0,0,1-.17.73,1.27,1.27,0,0,1-.72.75,1.61,1.61,0,0,1-1.24-.09,4.22,4.22,0,0,1-.74-.43l-3.46-2.43.73-1.72,3.67,2.59a1.35,1.35,0,0,0,.29.16.88.88,0,0,0,.39.08.32.32,0,0,0,.28-.21.78.78,0,0,0,0-.68,2,2,0,0,0-.54-.66l-3.53-2.5.74-1.71,5,3.54A2.22,2.22,0,0,0,93,66.63a3.26,3.26,0,0,0-.89-1.09l.22-.5a3.89,3.89,0,0,1,1.22,1.65,3,3,0,0,1,.1,1.41l.78.54a2.9,2.9,0,0,1,1.26,1.61,2.18,2.18,0,0,1-.16,1.4A2.35,2.35,0,0,1,95.23,72.14ZM94.38,71a2.26,2.26,0,0,0-.66-.65l-.32-.22a3.51,3.51,0,0,0,.07,1,.85.85,0,0,0,.45.61.39.39,0,0,0,.3,0,.45.45,0,0,0,.26-.25A.61.61,0,0,0,94.38,71Z" transform="translate(-0.06 -0.65)"/><path d="M98.15,64.14a1.27,1.27,0,0,1-.33.39,1.13,1.13,0,0,1-.46.21,1.18,1.18,0,0,1-.56,0,1.53,1.53,0,0,1-1.06-1,4.85,4.85,0,0,1-.33-1.53l-.62-.31a2.11,2.11,0,0,1,.33,1.67,1.6,1.6,0,0,1-.72,1.06,2.22,2.22,0,0,1-1.7.14,5.45,5.45,0,0,1-.91-.31,6.12,6.12,0,0,1-.91-.48,4.8,4.8,0,0,1-1.49-1.49,2.61,2.61,0,0,1-.33-2,1.35,1.35,0,0,1,.36-.72.56.56,0,0,1,.52-.15l.07,0-.62-.29.43-1.81,5.54,2.62A2.31,2.31,0,0,0,95,59.11a3.33,3.33,0,0,0-1.07-.92l.13-.53a3.79,3.79,0,0,1,1.49,1.42,2.85,2.85,0,0,1,.34,1.36l.86.4a2.84,2.84,0,0,1,1.52,1.37,2.19,2.19,0,0,1,.09,1.4A2.09,2.09,0,0,1,98.15,64.14ZM94,61.87a1.43,1.43,0,0,0-.63-.61l-2.83-1.34a.38.38,0,0,0-.15,0,.47.47,0,0,0-.16,0,.52.52,0,0,0-.28.37.9.9,0,0,0,0,.53,2.35,2.35,0,0,0,.36.55,4.78,4.78,0,0,0,1.25.93,6.64,6.64,0,0,0,.71.35,6.14,6.14,0,0,0,.66.21,1.22,1.22,0,0,0,.91,0,.33.33,0,0,0,.15-.16.65.65,0,0,0,.07-.21A.89.89,0,0,0,94,61.87Zm3.15,1.33a2.27,2.27,0,0,0-.77-.53L96,62.52a3.37,3.37,0,0,0,.23.95.79.79,0,0,0,.55.52.39.39,0,0,0,.3,0,.46.46,0,0,0,.21-.29A.58.58,0,0,0,97.13,63.2Z" transform="translate(-0.06 -0.65)"/><path d="M96,56.89a2.28,2.28,0,0,1-1.64.45,6.82,6.82,0,0,1-1-.14,7.13,7.13,0,0,1-1-.32,4.77,4.77,0,0,1-1.73-1.2,2.63,2.63,0,0,1-.68-1.9,1.38,1.38,0,0,1,.22-.77.55.55,0,0,1,.49-.24h.1l-.68-.18.09-1.86,4.34,1.16A1.3,1.3,0,0,0,95,52c.37,0,.56-.14.58-.5a.81.81,0,0,0-.32-.66,2.61,2.61,0,0,0-.84-.45l0-.54a4.88,4.88,0,0,1,1.51.92,2.46,2.46,0,0,1,.63,1,2.09,2.09,0,0,1,.11.82,1.23,1.23,0,0,1-.34.86,1.38,1.38,0,0,1-.91.35,3.22,3.22,0,0,1,.77.81,1.89,1.89,0,0,1,.32,1.17A1.64,1.64,0,0,1,96,56.89Zm-.74-2.38a1.55,1.55,0,0,0-.2-.32,1.6,1.6,0,0,0-.83-.5l-2.88-.77-.15,0-.16.07a.54.54,0,0,0-.21.42.84.84,0,0,0,.15.51,2,2,0,0,0,.45.48,4.86,4.86,0,0,0,1.39.7c.26.08.51.15.77.21a4.73,4.73,0,0,0,.68.09,1.23,1.23,0,0,0,.89-.2.38.38,0,0,0,.12-.17,1.57,1.57,0,0,0,0-.23A.89.89,0,0,0,95.3,54.51Z" transform="translate(-0.06 -0.65)"/><circle class="cls-2" cx="51" cy="51" r="50"/><circle class="cls-2" cx="51" cy="51" r="50"/><path class="cls-3" d="M19.13,63.34" transform="translate(-0.06 -0.65)"/><path class="cls-3" d="M79.9,69.68A34,34,0,0,1,35.37,81.82" transform="translate(-0.06 -0.65)"/><path class="cls-3" d="M56.54,18.09a33.78,33.78,0,0,1,15.4,6.73" transform="translate(-0.06 -0.65)"/><path class="cls-3" d="M19.13,63.34A34,34,0,0,1,39.5,19.67" transform="translate(-0.06 -0.65)"/></svg>