<?xml version="1.0" encoding="utf-8"?>
<!-- Generator: Adobe Illustrator 24.3.0, SVG Export Plug-In . SVG Version: 6.00 Build 0)  -->
<svg version="1.1" id="Слой_1" xmlns="http://www.w3.org/2000/svg" xmlns:xlink="http://www.w3.org/1999/xlink" x="0px" y="0px"
	 viewBox="0 0 102 102" style="enable-background:new 0 0 102 102;" xml:space="preserve">
<style type="text/css">
	.st0{fill:#101B32;}
	.st1{fill:#224058;}
	.st2{fill:none;stroke:#224058;stroke-width:2;stroke-miterlimit:10;}
	.st3{fill:none;stroke:#224058;stroke-width:2;}
</style>
<g>
	<g id="XMLID_1_">
		<g>
			<path class="st0" d="M98.5,61.7c0.2,0.4,0.2,0.9,0.1,1.4c-0.1,0.1-0.2,0.3-0.3,0.5c-0.1,0.2-0.2,0.3-0.3,0.4s-0.3,0.2-0.5,0.2
				s-0.4,0-0.6,0c-0.5-0.1-0.9-0.5-1.1-1c-0.2-0.5-0.3-1-0.3-1.5L95,61.3c0.3,0.5,0.5,1.1,0.3,1.7c-0.1,0.4-0.3,0.8-0.7,1.1
				c-0.5,0.3-1.1,0.3-1.7,0.1c-0.1,0-0.2,0-0.2-0.1c-0.2-0.1-0.4-0.2-0.7-0.2c-0.3-0.1-0.6-0.3-0.9-0.5c-0.6-0.4-1.1-0.9-1.5-1.5
				c-0.4-0.6-0.5-1.3-0.3-2c0-0.3,0.2-0.5,0.4-0.7c0.1-0.1,0.3-0.2,0.5-0.2h0.1l-0.6-0.3l0.4-1.8l5.6,2.6c0-0.4-0.2-0.7-0.4-1
				c-0.3-0.4-0.7-0.7-1.1-0.9l0.1-0.5c0.6,0.3,1.1,0.8,1.5,1.4c0.2,0.4,0.3,0.9,0.3,1.4l0.9,0.4C97.7,60.6,98.2,61,98.5,61.7z
				 M97.5,63.2c0-0.2-0.1-0.4-0.2-0.6c-0.2-0.2-0.5-0.4-0.8-0.5L96.2,62c0,0.3,0.1,0.6,0.2,1c0.1,0.3,0.3,0.5,0.6,0.5
				c0.1,0,0.2,0,0.3,0C97.4,63.4,97.5,63.3,97.5,63.2z M94.3,62.2c0-0.1,0.1-0.1,0.1-0.2c-0.1-0.3-0.1-0.5-0.2-0.7
				c-0.1-0.3-0.4-0.5-0.6-0.6l-2.8-1.3c0,0-0.1,0-0.2,0s-0.1,0-0.2,0c-0.1,0.1-0.3,0.2-0.3,0.4c-0.1,0.2-0.1,0.4,0,0.5
				c0.1,0.2,0.2,0.4,0.4,0.6c0.4,0.4,0.8,0.7,1.3,0.9c0.2,0.1,0.5,0.2,0.7,0.4c0.2,0.1,0.4,0.2,0.7,0.2c0.3,0.1,0.6,0.1,0.9,0
				C94.2,62.4,94.2,62.3,94.3,62.2z"/>
			<path class="st0" d="M96.8,51.1c0.1,0.3,0.1,0.5,0.1,0.8c0,0.3-0.1,0.6-0.3,0.9c-0.3,0.2-0.6,0.3-0.9,0.4
				c0.3,0.2,0.6,0.5,0.8,0.8s0.3,0.8,0.3,1.2c-0.1,0.4-0.3,0.8-0.6,1.1c-0.5,0.4-1.1,0.5-1.6,0.5c-0.1,0-0.2,0-0.3,0
				c-0.2,0-0.5-0.1-0.7-0.1c-0.3-0.1-0.7-0.2-1-0.3c-0.7-0.3-1.3-0.7-1.7-1.2c-0.5-0.5-0.7-1.2-0.7-1.9c0-0.3,0.1-0.5,0.2-0.8
				c0.1-0.2,0.3-0.3,0.5-0.2H91L90.2,52l0.1-1.9l4.4,1.2c0.2,0.1,0.3,0.1,0.5,0.1c0.4,0,0.6-0.1,0.6-0.5c0-0.3-0.1-0.5-0.3-0.7
				c-0.3-0.2-0.5-0.4-0.8-0.5v-0.5c0.6,0.2,1.1,0.5,1.5,0.9C96.5,50.4,96.7,50.7,96.8,51.1z M95.5,54.4c0-0.1,0-0.2,0-0.2
				c0-0.1,0-0.2-0.1-0.3c-0.1-0.1-0.1-0.2-0.2-0.3c-0.2-0.2-0.5-0.4-0.8-0.5l-2.9-0.8h-0.2l-0.2,0.1c-0.1,0.1-0.2,0.3-0.2,0.4
				c0,0.2,0,0.4,0.2,0.5c0.1,0.2,0.3,0.3,0.5,0.5c0.4,0.3,0.9,0.5,1.4,0.7c0.3,0.1,0.5,0.2,0.8,0.2c0.2,0,0.5,0.1,0.7,0.1
				c0.3,0.1,0.6,0,0.9-0.2C95.5,54.6,95.5,54.5,95.5,54.4z"/>
			<path class="st0" d="M95.9,69.8c0.1,0.5,0,1-0.2,1.4c-0.1,0.1-0.2,0.3-0.3,0.4s-0.2,0.2-0.4,0.3S94.7,72,94.5,72s-0.4,0-0.5-0.1
				c-0.5-0.2-0.8-0.6-0.9-1.1s-0.1-1,0-1.6l-0.6-0.4c0.2,0.3,0.2,0.7,0.2,1c0,0.3-0.1,0.5-0.2,0.7c-0.1,0.3-0.4,0.6-0.7,0.8
				c-0.4,0.1-0.9,0.1-1.2-0.1c-0.3-0.1-0.5-0.3-0.7-0.4l-3.5-2.4l0.7-1.7l3.7,2.6c0.1,0.1,0.2,0.1,0.3,0.2s0.3,0.1,0.4,0.1
				s0.2-0.1,0.3-0.2c0.1-0.2,0.1-0.5,0-0.7c-0.1-0.3-0.3-0.5-0.5-0.7l-3.5-2.5l0.7-1.7l5,3.6c0-0.4-0.1-0.8-0.3-1.2
				c-0.2-0.4-0.5-0.8-0.9-1.1l0.2-0.5c0.5,0.4,1,1,1.2,1.7c0.1,0.5,0.2,0.9,0.1,1.4l0.8,0.5C95.2,68.6,95.7,69.1,95.9,69.8z
				 M94.8,70.9c-0.1-0.1-0.1-0.3-0.2-0.4c-0.2-0.3-0.4-0.5-0.7-0.7l-0.3-0.2c0,0.3,0,0.7,0.1,1c0,0.3,0.2,0.5,0.5,0.6
				c0.1,0,0.2,0,0.3,0S94.7,71.1,94.8,70.9z"/>
			<path class="st0" d="M89.5,71.4c1,1.3,1.3,2.4,0.7,3.3c0,0.2-0.4,0.5-0.8,0.6c-0.4,0.1-0.8,0-1.1-0.2c-0.2-0.1-0.4-0.3-0.5-0.4
				l-0.1-0.1c-0.1-0.1-0.1-0.1-0.1-0.1c-0.1-0.1-0.1-0.1-0.2-0.2c-0.4-0.3-0.7-0.3-0.9,0c-0.1,0.1-0.1,0.2-0.1,0.4V75v0.3l2,2
				l-1,1.6l-1.6-1.6l-3.2-3.2l1-1.6l1.8,1.9c-0.1-0.4-0.2-0.8-0.3-1.1v-0.1c-0.2-0.7-0.3-1.2-0.4-1.4c-0.1-0.3-0.1-0.7,0-1
				c0-0.1,0.1-0.3,0.2-0.4c0.1-0.2,0.3-0.4,0.6-0.4c0.4,0,0.9,0.2,1,0.7c0,0.2,0,0.5-0.1,0.6c-0.1,0.2-0.3,0.3-0.5,0.3
				s-0.3,0-0.5-0.1c0,0.2,0,0.3,0,0.5c0,0.2,0.1,0.3,0.1,0.5v0.2l0.1,0.4c0.1,0.2,0.1,0.4,0.1,0.5c0.1-0.2,0.2-0.3,0.3-0.5
				c0.2-0.4,0.5-0.6,0.9-0.7c0.3,0,0.6,0.1,0.9,0.3c0.2,0.1,0.3,0.3,0.5,0.4l0.2,0.2l0.3,0.2c0.2,0.2,0.5,0.1,0.6-0.1
				c0,0,0-0.1,0.1-0.1c0.1-0.1,0.1-0.2,0.1-0.3s0-0.2,0-0.3c0-0.1-0.1-0.3-0.2-0.4l-0.3-0.5L89.5,71.4z"/>
			<path class="st0" d="M78.8,36.9L78.8,36.9c-0.2,0-0.3,0.2-0.3,0.4s0.1,0.3,0.3,0.3c0.2,0,0.4-0.1,0.4-0.3S79.1,36.9,78.8,36.9z
				 M71.2,66.2h1.2c0.2,2.1-0.2,4.2-1.3,6c-4.6-0.1-7.3-0.8-9.1-1.8c-4.8,1.9-9,3-12.3,3c-1.1,0-2.1-0.1-2.9-0.4l1.8-0.6
				c2.1-1.1,3.6-3.1,4-5.5c0.6-2.9-0.6-5.8-2.9-7.5l-0.9,0.1c-4.1,1.2-7.8,3.7-10.2,7.2l-0.2,0.1c0-0.2,0.1-0.4,0.1-0.5
				c0.1-0.9-0.5-1.8-1.4-1.9c-0.9-0.1-1.8,0.5-1.9,1.4c0,0.1,0,0.3,0,0.4c0,0.4,0.2,0.9,0.4,1.2c-2,0.4-3.9,0.9-5.4,1.4
				c-1.5,0.5-2.7,1-3.3,1.4c-0.6,0.4-0.5,0.6,0.4,0.5c1.9-0.7,3.9-1.3,5.9-1.7c2.6-0.6,5.2-1,7.9-1.1c0.5,0,0.7,0.2,0.1,0.3
				c-3,0.3-6,0.8-9,1.4c-2.3,0.5-4.5,1.4-6.5,2.6c-0.3,0.3-0.2,0.5,0,0.6l0.7-0.1c3.1-0.7,9.5-2.6,11.3-2.2c0,0.3,0.5,0.4,0.9,0.4
				c0.4,0,0.8-0.1,0.9-0.1c0.5-0.1,1.1-0.2,1.6-0.4c1.1-0.2,2.1-0.8,2.9-1.6h0.1c1.5,3.2-14.4,6.2-18.3,8.9c3.9-0.1,6.3-0.8,7.6-2
				c9.2,0.7,16.9-7.3,13.2-11.8c-1-1.6-0.3-1.6,0.9-0.4c3.7,4.4-3,12.5-13.3,13.5l-8.4,2c-2.9,0.7-6.4,1.3-9.2,1.3
				c-1.3,0-2.4-0.1-3.2-0.5c-0.8-0.8-0.8-1.2,0.3-1.5c0.1,2,6,0.5,13.8-2.4L24,75.1v1.4h-3.1v-1.9c-2.6,0.5-5.8,0.2-6.5-1.7
				c4.3-5.3,11.8-9.6,21.6-13.1c-6.3,2.6-12.2,6.3-17.3,10.9c-0.5,1.3,0.2,1.4,1.7,0.1c6-6.2,13.4-9.8,20.8-12.8
				c2.5-0.8,5.2-1.6,8-2.3c2.6-5.2,7-9.6,13.2-14.7l0.1,0.1c0,0.9,0.7,1.6,1.6,1.6C58.7,46.8,54,51,51.7,55l0.5-0.1
				c1.9-3.4,6.8-7.7,12.7-12.4l0.2,0.1l0.1,0.1C65,42.9,65,43.1,65,43.3c0,0.9,0.7,1.6,1.5,1.6c-2.2,1.6-4.3,3.1-6.2,4.6
				c-1.9,1.5-3.5,2.9-4.8,4.4l0.6-0.1c2.3-2.6,6.2-5.5,10.6-8.6l0.1,0.2c-0.2,0.3-0.3,0.6-0.3,0.9c0,0.7,0.4,1.3,1,1.5
				c-3.4,1.9-6.2,3.4-8.3,5.3l1.1-0.3c2.4-1.8,5-3.3,7.7-4.6v0.1c-0.2,0.3-0.3,0.6-0.3,0.9c0,0.8,0.6,1.4,1.3,1.6l0.1,0.2
				c7-1.5,11.4-2.4,15.3-8.5c2.4-4.9,0.9-8.7-4.2-11.6c-0.7-0.3-1.4-0.6-2.1-0.9c1.6,1,3.1,2.1,4.5,3.4c-0.2,0.6-0.1,1.3,0.1,1.9
				c0.3,1.1,0.8,1.9,1.2,1.8c0.4-0.1,0.4-0.7,0.4-1.4c1.3,2.9-0.2,6.3-4.6,10.8c1.5-12.6-6.9-10.4-9.4-13.3c-2.2-0.5-3.6-1.3-4-2.2
				c-2.3-0.1-3.5-0.9-3.9-2.2l-2.2-0.2L59.5,28l1.1-0.2c-2.5-1.2-5.4-1.8-8.2-1.6c1.6-0.5,3-0.5,4.5-0.3c4.1,0.6,8.4,3,16.7,3.3h0.1
				c0.2-0.9-0.2-1.8-0.9-2.3c3.5-2,8.8,1.2,12.3-2.2c1.8,2.4,2.1,5.7,1.1,9.8L86,34.3c1.7,1.7,2.7,4,3,6.3c-0.4-0.9-0.7-1.4-0.7-1.4
				c0,0,0.2,0.6,0.8,1.9c0,0.4,0,0.8,0,1.2c0,2.7-0.6,5.3-1.7,7.7c-0.5,1.1-1.1,2.1-1.8,3.1c-0.1,0.2-0.3,0.3-0.5,0.3
				c-0.3,0-0.5-0.2-0.5-0.5c0-0.2,0.1-0.3,0.2-0.4c2.6-3.3,3.8-7.5,3.4-11.7l-0.7-0.2c0.1,0.4,0.2,0.8,0.2,1.3
				c0,1.1-0.3,1.9-0.8,1.9c-0.3,0-0.5-0.3-0.6-0.8c-0.2,0.5-0.3,1.1-0.6,1.6c0.1,0,0.1,0,0.2,0c0.4,0,0.6,0.7,0.5,1.5
				c-0.1,0.8-0.5,1.3-0.8,1.3c-0.4,0-0.6-0.6-0.6-1.3c-0.4,0.7-0.8,1.4-1.3,2.1c0.2-0.1,0.4-0.2,0.7-0.1c0.4,0.2,0.1,1.2-0.7,2.2
				c-0.8,1-1.8,1.7-2.3,1.5c-0.4-0.2-0.2-0.8,0.2-1.5L79,52.1c0.3,0,0.6,0.2,0.9,0.4c0.5,1.1,0.1,2.3-1,2.8c-0.6,0.3-1.4,0.3-2-0.1
				c-0.5-0.5,0-2.4-1.6-1c-0.5,0.4-0.7,1.1-0.3,1.6c0.2,0.2,0.6,0.3,0.9,0.3c-0.4,1.4-1.4,2.6-2.7,3.3c-2.6,1.5-5.8,1.7-7.2,0.4
				c-0.4-0.3-0.6-0.8-0.6-1.2c-1-0.6-2.1-1-3.2-1c-0.3,0-0.6,0-0.8,0.1c3,1.8-7,3.2-9.6,1.4c0.9,0.9,1.6,2.1,2,3.3
				c1.8-0.3,3.4-0.4,5-0.4c5.7,0,10.6,1.3,18.7,1.2c2.3,0.1,3.8-1,4.8-3.1l0.3,0.7C80.4,63.7,77.2,65.9,71.2,66.2z M85.3,33.2
				c0.6-3,0.4-5.6-0.5-6.8l-0.4,0.4c1,1.5,1.1,3.2,0.6,6C84.9,32.9,85.3,33.2,85.3,33.2z M84,32c0.3-1.6,0.2-3.3-0.5-4.9l-0.4,0.3
				c0.5,1.4,0.7,2.9,0.5,4.3L84,32z M82.6,30.9c0.2-1,0.1-2.1-0.4-3l-0.3-0.1c0.4,1,0.5,2,0.3,3L82.6,30.9z M82,48.8
				c0.3,0,0.5-0.2,0.5-0.5c-0.1-0.3-0.3-0.5-0.5-0.5c-0.3,0-0.5,0.2-0.5,0.5S81.7,48.8,82,48.8z M81,30.2c0.4-1,0.3-1.7-0.3-2.1
				L80.4,28c0.5,0.7,0.5,1.6,0.1,2.3L81,30.2z M79.7,29.7c0.2,0,0.3-0.4,0.2-0.9S79.6,28,79.4,28c-0.2,0-0.3,0.4-0.2,0.9
				C79.3,29.4,79.6,29.8,79.7,29.7z M78.5,29.3c0.2,0,0.2-0.4,0.2-0.8s-0.3-0.7-0.4-0.7c-0.2,0-0.2,0.4-0.2,0.8
				C78.2,29.1,78.3,29.4,78.5,29.3z M78.4,50.9c0-0.3-0.2-0.5-0.5-0.5c-0.3,0-0.5,0.2-0.5,0.5c0,0.3,0.2,0.5,0.5,0.5
				C78.2,51.4,78.4,51.2,78.4,50.9z M77.1,28.8c0.1,0,0.2-0.3,0.1-0.6c-0.1-0.3-0.2-0.5-0.3-0.5s-0.2,0.3-0.1,0.6
				C76.9,28.6,77,28.8,77.1,28.8z M77.2,35.1c0-0.2-0.2-0.4-0.4-0.4c-0.2,0-0.4,0.2-0.4,0.4c0,0.2,0.2,0.4,0.4,0.4
				C77,35.5,77.2,35.3,77.2,35.1z M75.8,28.5c0.1,0,0.1-0.2,0.1-0.5c0-0.2-0.2-0.4-0.3-0.4s-0.1,0.2-0.1,0.5
				C75.6,28.4,75.7,28.5,75.8,28.5z M74.8,33c0-0.2-0.2-0.4-0.4-0.4c-0.2,0-0.4,0.2-0.4,0.4s0.2,0.4,0.4,0.4
				C74.6,33.4,74.8,33.2,74.8,33z M74.2,51.9c0-0.3-0.2-0.5-0.5-0.5c-0.3,0-0.5,0.2-0.5,0.5c0,0.3,0.2,0.5,0.5,0.5
				C74,52.4,74.2,52.2,74.2,51.9z M73.1,55.7c0-0.4-0.3-0.7-0.7-0.7s-0.7,0.3-0.7,0.7c0,0.4,0.3,0.7,0.7,0.7S73.1,56.1,73.1,55.7z
				 M55.4,67.8c4.8-5.2,13.9-2.1,18.5-3c-6.4,0-9.9-1.1-14.5,0.1l-4.5,1.3c1.8-3,6.9-3.1,13.3-2.2c-11.2-2.5-12.3,1.2-14.1,0.3
				c0.1,0.8,0,1.6-0.1,2.3c-0.4,2.1-1.5,4-3.3,5.2c3.1-0.2,6.3-0.7,9.3-1.6c3-0.9,6-2.1,8.8-3.7c-7.3,0-11.1-0.3-13.5,3.4L55.4,67.8
				z M71.9,32.3c0.2,0,0.4-0.2,0.4-0.4c-0.1-0.2-0.2-0.4-0.4-0.4c-0.2,0-0.4,0.2-0.4,0.4S71.7,32.3,71.9,32.3z M71.6,53.4l-1.9-0.2
				c-7.3,0.9-14.5,2.3-21.6,4.2c0.5,0.1,0.9,0.2,1.4,0.4C56.7,55.8,64.1,54.3,71.6,53.4z M70.9,68.2l0.6-0.4c-0.1,0-1.5-0.5-1.5-0.5
				l-0.5,0.5L70.9,68.2z M70.3,70l0.6-0.5l-3.5-0.9L66.9,69L70.3,70z M69.7,71.7l0.4-0.5l-5.3-1.5l-0.5,0.5L69.7,71.7z M67.8,57.1
				c0-0.3-0.3-0.6-0.6-0.6c-0.3,0-0.6,0.3-0.6,0.6c0,0.3,0.3,0.6,0.6,0.6C67.5,57.7,67.8,57.4,67.8,57.1z M47.7,58.4
				c-0.2-0.1-0.5-0.1-0.7-0.2c-0.4-0.1-0.9-0.1-1.3-0.1c-6.7,2.2-11.6,5-14.2,8.5l1.8,0.1C34.6,63.9,39.8,60.9,47.7,58.4z M36.9,72
				h-2l-0.1,0.8c0,0-0.1,0-0.1,0l-3.3-0.2l0.1,1.5c1.1-0.4,2.1-0.9,3.2-1.3l0.1,0l0-0.1C35.5,72.6,36.2,72.3,36.9,72z M31.2,74.4
				h-3.4v1.3C28.9,75.3,30,74.9,31.2,74.4z M27.4,68.8c0-0.2-0.4-0.2-0.9,0c-0.5,0.1-0.8,0.4-0.8,0.5c0.1,0.2,0.5,0.2,0.9,0
				C27.1,69.1,27.4,68.9,27.4,68.8z M23.9,74.3v-0.8h-0.1c-0.6,0.3-1.2,0.6-1.9,0.7L23.9,74.3z M21.4,73.2l-0.2-0.5
				c-2.3,0.9-4.1,1.1-5.1,0.3l-0.3,0.2C16.8,74.3,18.6,74.3,21.4,73.2z"/>
			<path class="st0" d="M86.3,79.2c0,0.4,0,0.8-0.2,1.2c-0.1,0.3-0.3,0.5-0.5,0.7c-0.2,0.2-0.5,0.4-0.8,0.4c-0.3,0-0.7-0.1-0.9-0.3
				c0.1,0.4,0.1,0.7,0.1,1.1c0,0.4-0.2,0.8-0.5,1.1C83,83.8,82.6,84,82.1,84c-0.6,0-1.1-0.3-1.5-0.7c-0.2-0.2-0.4-0.5-0.6-0.7
				c-0.1-0.1-0.1-0.2-0.2-0.2c-0.1-0.2-0.3-0.5-0.3-0.7c-0.3-0.6-0.5-1.3-0.6-2c0-0.7,0.2-1.4,0.7-1.9c0.2-0.2,0.4-0.4,0.7-0.5
				c0.2,0,0.4,0,0.5,0.1l0.1,0.1l-0.4-0.6l1.3-1.4l2.6,3.7c0.1,0.1,0.2,0.2,0.3,0.3c0.2,0.2,0.4,0.3,0.7,0.1l0.1-0.1
				c0.2-0.2,0.2-0.5,0.2-0.7c-0.1-0.3-0.2-0.6-0.4-0.9l0.4-0.4C86,78,86.2,78.6,86.3,79.2z M83.1,81.7c0-0.1,0-0.3,0-0.4
				c0-0.3-0.1-0.6-0.3-0.9l-1.7-2.5L81,77.8h-0.2c-0.2,0-0.3,0.1-0.4,0.2s-0.2,0.3-0.2,0.5s0,0.4,0,0.7c0.1,0.5,0.3,1,0.6,1.4
				c0.1,0.2,0.3,0.4,0.5,0.7c0.1,0.2,0.3,0.4,0.5,0.5c0.2,0.2,0.5,0.4,0.8,0.4c0.1,0,0.1,0,0.2-0.1l0.2-0.2
				C83,81.9,83.1,81.8,83.1,81.7z"/>
			<path d="M84.7,55.9l-1.6,3.5l-0.6,0.2l1.1-3.3C83.9,55.8,84.2,55.8,84.7,55.9z"/>
			<circle class="st0" cx="82.2" cy="53.2" r="0.6"/>
			<path class="st0" d="M81.7,56.3c0.3,0.4-0.7,1.9-2.4,3.2c-1.7,1.3-3.3,2.1-3.7,1.6c-0.3-0.4,0.7-1.9,2.4-3.2
				C79.7,56.6,81.3,55.8,81.7,56.3z"/>
			<path class="st0" d="M79,84c0.3,0.6,0.4,1.3,0.3,2c-0.1,0.7-0.5,1.4-1.2,1.8c-0.2,0.2-0.4,0.3-0.7,0.3c-0.2,0-0.3,0-0.5,0
				l1.4,2.9l-1.2,1.5l-4.4-9.4l1.5-1.1l0.4,0.9c0.1-0.5,0.4-1,0.9-1.3c0.3-0.3,0.7-0.4,1.2-0.3c0.5,0.2,1,0.5,1.3,1
				c0.1,0.1,0.2,0.3,0.3,0.4C78.6,83.1,78.8,83.6,79,84z M77.3,87c0.2-0.2,0.4-0.6,0.3-1.1c0-0.5-0.2-1-0.4-1.5
				c-0.2-0.4-0.4-0.9-0.7-1.3c-0.2-0.3-0.4-0.5-0.7-0.6c-0.2,0-0.3,0-0.4,0.1s-0.2,0.3-0.3,0.4c0,0.2,0,0.4,0,0.6l1.6,3.4
				c0.1,0,0.2,0.1,0.3,0.1S77.2,87,77.3,87z"/>
			<path class="st0" d="M79.1,46.5l-0.5,0.7c0.7-8.5-7.2-13.8-26.8-15.7C42.5,33.4,34,39,28.3,34.7c4.8-0.1,11.7-9.1,17-10.3
				c-1.4-3.5-4-6.4-3.8-10.5c-0.7-0.7-1.3-1.5-1.7-2.3c-0.9-1.9-1.1-4.1-1.1-6.4c5.8,3.6,11.8,9.9,18.2,20.5
				c-0.3-0.1-0.5-0.1-0.7-0.2c-1.4-1.3-2.6-2.7-3.7-4.2c0.7,1.5,1.7,2.8,2.9,4c-2.3-0.5-3.7-0.2-4.3,1.1
				C50.1,35,77.8,27.8,79.1,46.5z M50.6,30.6l-0.3-1.2c-4,0.7-7.8,2.3-11.2,4.6C43.1,32.2,46.7,30.8,50.6,30.6z"/>
			<path class="st0" d="M74.9,39.5c2.4,1.7,3.1,4.2,2.9,8.3h-0.9c0.4-3.5-0.4-5.9-2.3-7.6L74.9,39.5z"/>
			<path class="st0" d="M73.2,88.1c0.2,0.7,0.2,1.3,0,2c-0.2,0.7-0.7,1.3-1.4,1.6c-0.2,0.1-0.5,0.2-0.7,0.2c-0.2,0-0.3,0-0.5-0.1
				l0.8,3.1l-1.5,1.3l-2.8-10l1.7-0.9l0.3,1c0.2-0.5,0.6-1,1.1-1.2c0.4-0.2,0.8-0.3,1.2-0.1c0.5,0.3,0.9,0.7,1.1,1.2
				C72.8,86.8,73,87.4,73.2,88.1z M71.5,89.8c0-0.5,0-1-0.1-1.5s-0.3-0.9-0.5-1.4c-0.1-0.3-0.3-0.5-0.6-0.7c-0.2,0-0.3,0-0.5,0.1
				c-0.1,0.1-0.3,0.2-0.3,0.4c-0.1,0.2-0.2,0.4-0.2,0.6l1,3.6c0.1,0.1,0.2,0.1,0.2,0.1c0.1,0,0.2,0,0.3-0.1
				C71.2,90.7,71.4,90.3,71.5,89.8z"/>
			<path class="st0" d="M67.2,91.3l0.5-0.2c0,0.6-0.1,1.2-0.3,1.7c-0.2,0.4-0.4,0.7-0.7,0.9c-0.2,0.2-0.5,0.3-0.7,0.4
				c-0.3,0.1-0.6,0.1-0.9,0c-0.3-0.2-0.5-0.4-0.6-0.7c-0.1,0.4-0.3,0.7-0.5,1c-0.3,0.3-0.6,0.6-1,0.7c-0.5,0.1-0.9,0-1.3-0.2
				c-0.5-0.3-0.9-0.8-1-1.4c-0.1-0.3-0.2-0.6-0.2-0.9c0-0.3,0-0.7,0-1c0-0.7,0.2-1.4,0.5-2s0.9-1.1,1.6-1.3c0.3-0.1,0.5-0.1,0.8-0.1
				c0.2,0,0.3,0.2,0.4,0.4l0,0.1v-0.1c0,0,0,0,0,0L63.7,88l1.8-0.6l0.4,4.5c0,0.1,0,0.3,0.1,0.4c0,0.3,0.3,0.4,0.5,0.4h0.1
				c0.2-0.1,0.4-0.3,0.5-0.5C67.2,91.9,67.3,91.6,67.2,91.3z M64.1,92.1l-0.3-3c0,0,0-0.1-0.1-0.1c-0.1-0.2-0.4-0.3-0.6-0.2
				c-0.2,0.1-0.3,0.2-0.4,0.3c-0.1,0.2-0.2,0.4-0.3,0.6c-0.2,0.5-0.2,1-0.2,1.6c0,0.3,0,0.5,0.1,0.8c0,0.2,0.1,0.5,0.1,0.7
				c0.1,0.3,0.2,0.6,0.5,0.8c0.1,0,0.1,0.1,0.2,0.1c0.1,0,0.1,0,0.2,0c0.2-0.2,0.3-0.3,0.4-0.3c0.1-0.1,0.2-0.2,0.2-0.3
				C64.1,92.8,64.1,92.4,64.1,92.1z"/>
			<path class="st1" d="M63.8,88.6L63.8,88.6L63.8,88.6C63.8,88.6,63.8,88.6,63.8,88.6z"/>
			<path class="st0" d="M59,92.6c0,0.2,0,0.5,0,0.7c0,0.3-0.1,0.5-0.1,0.8c-0.1,0.3-0.2,0.5-0.3,0.8c-0.2,0.2-0.3,0.4-0.6,0.6
				c-0.4,0.4-0.9,0.7-1.5,0.8c-0.2,0.1-0.5,0-0.7,0c-0.2-0.1-0.4-0.2-0.5-0.3c-0.1-0.2-0.2-0.3-0.2-0.5s0-0.4,0.1-0.7
				c0.1,0.1,0.3,0.3,0.4,0.3c0.1,0.1,0.3,0.1,0.5,0.1c0.2,0,0.4-0.1,0.6-0.3c0.2-0.2,0.3-0.4,0.4-0.6c0.1-0.2,0.1-0.5,0.2-0.7
				c0-0.3,0-0.5,0-0.8c0-0.4-0.1-0.8-0.4-1.1c-0.3-0.3-0.6-0.4-1-0.4c-0.2,0-0.4,0.1-0.6,0.2l-0.6,4.8l-1.9,0.2l1-8.8
				c-0.2,0-0.5,0.1-0.7,0.2c-0.2,0.1-0.4,0.3-0.5,0.5c-0.3,0.7-0.4,1.4-0.3,2.1c0,0.2,0.1,0.4,0.2,0.6c0,0,0,0.1,0.1,0.1v0.1
				c-0.4,0.1-0.7,0-1.1-0.2c-0.3-0.2-0.4-0.6-0.5-0.9c0-0.4,0-0.9,0.1-1.3c0.1-0.4,0.4-0.8,0.7-1.1c0.4-0.4,0.8-0.7,1.3-0.9
				c0.6-0.3,1.3-0.4,2-0.5h0.5H56h1c0.2,0,0.5,0,0.7,0c0.4,0,0.8-0.1,1.2-0.3c0,0,0,0.1,0,0.3c0,0.2,0,0.3,0,0.4
				c0,0.1-0.1,0.2-0.1,0.3c-0.1,0.4-0.5,0.6-0.9,0.7c-0.7,0.1-1.5,0.1-2.2,0l-0.4,3c0.3-0.1,0.5-0.2,0.7-0.2
				c0.2-0.1,0.4-0.1,0.6-0.1c0.6-0.1,1.3,0.1,1.7,0.5c0.2,0.2,0.4,0.5,0.5,0.7C58.9,92,59,92.3,59,92.6z"/>
			<path d="M37.8,65.1c0.4,0.4,0.4,1.1,0,1.6C37.5,66.9,37.3,67,37,67c-0.4,0-0.8-0.3-1-0.6c0.4,0,0.6-0.3,0.6-0.7
				c0-0.3-0.2-0.5-0.4-0.6C36.6,64.7,37.3,64.7,37.8,65.1z"/>
			<path class="st0" d="M36.7,12.8l0.4-0.2c-0.1,0.7-0.2,1.4-0.6,2.1s-1,1.2-1.7,1.6c-0.3,0-0.9,0.1-1.4,0c-0.5-0.2-1-0.7-1.2-1.2
				c-0.1-0.3-0.2-0.5-0.3-0.8s-0.2-0.7-0.2-1c0-0.4,0-0.8,0-1.1s0.1-0.7,0.2-1c0.2-0.7,0.8-1.4,1.5-1.7c0.4-0.2,0.8-0.3,1.2-0.1
				c0.3,0.1,0.5,0.4,0.6,0.7c0.2,0.3,0.2,0.7,0.2,1c0,0.4-0.1,0.7-0.2,1.1c-0.2,0.3-0.4,0.7-0.6,0.9c-0.3,0.3-0.6,0.5-0.9,0.7
				c0.1,0.2,0.1,0.4,0.2,0.5c0.2,0.4,0.4,0.6,0.6,0.7s0.5,0,0.7-0.1c0.4-0.2,0.8-0.5,1-0.9c0.1-0.2,0.2-0.4,0.3-0.5
				C36.6,13.3,36.7,13.1,36.7,12.8z M34.4,11.9c0.1-0.3,0.1-0.5,0.1-0.8c0-0.3-0.1-0.5-0.2-0.8c0-0.1-0.1-0.2-0.2-0.3
				c-0.1-0.1-0.2-0.1-0.3,0c-0.2,0.1-0.3,0.2-0.3,0.4c-0.1,0.2-0.1,0.5-0.1,0.8s0,0.6,0,0.9c0,0.3,0.1,0.7,0.2,1
				c0.1-0.1,0.3-0.3,0.5-0.5C34.3,12.4,34.4,12.2,34.4,11.9z"/>
			<path class="st0" d="M30.9,15.5c0.2,0.6,0.3,1.3,0.2,2c-0.2,0.7-0.6,1.3-1.1,1.6c-0.3,0.3-0.7,0.4-1.1,0.3l1.3,3L29,23.8
				l-1.8-3.7c0,0.6-0.3,1.1-0.8,1.5c-0.4,0.3-0.9,0.5-1.3,0.4c-0.6-0.1-1-0.5-1.3-1c-0.1-0.1-0.1-0.1-0.2-0.2
				c-0.5-0.8-0.8-1.7-0.9-2.6c-0.1-0.5,0-1.1,0.2-1.6c0.2-0.5,0.5-0.9,0.9-1.2c0.6-0.4,1-0.4,1.3-0.1l-1.3-2.8l1.3-1.3l1.3,2.9
				c0.1-0.5,0.4-1,0.9-1.3c0.9-0.6,1.7-0.4,2.5,0.7C30.3,14.1,30.6,14.8,30.9,15.5z M29.4,17.3c0-0.5-0.1-1-0.3-1.4
				c-0.2-0.5-0.5-1-0.8-1.4c-0.4-0.6-0.8-0.7-1.2-0.5c-0.3,0.3-0.4,0.6-0.3,1l1.5,3.4c0.2,0.1,0.4,0.1,0.6-0.1
				C29.2,18,29.4,17.7,29.4,17.3z M26.6,19.3c0-0.2,0-0.4-0.1-0.6l-1.4-3c-0.2-0.2-0.5-0.2-0.7,0c-0.2,0.2-0.4,0.5-0.4,0.8
				c0,0.4,0,0.7,0.1,1.1c0.1,0.3,0.2,0.6,0.3,0.9s0.2,0.6,0.4,0.8l0.2,0.4c0.1,0.2,0.3,0.4,0.5,0.5c0.1,0.1,0.2,0.1,0.3,0.1
				c0.1,0,0.2-0.1,0.3-0.1c0.3-0.2,0.4-0.3,0.4-0.4C26.6,19.7,26.6,19.5,26.6,19.3z"/>
			<path class="st0" d="M24.2,22.5c0.1,0.4,0,0.8-0.1,1.2c-0.1,0.3-0.2,0.5-0.4,0.7c-0.2,0.3-0.5,0.4-0.8,0.5
				c-0.3,0-0.7-0.1-0.9-0.3c0,0.4,0,0.8,0,1.2c0,0.4-0.2,0.8-0.5,1.1c-0.3,0.3-0.7,0.5-1.1,0.5c-0.6,0-1.2-0.2-1.6-0.7
				c-0.2-0.2-0.5-0.4-0.7-0.7c-0.2-0.3-0.4-0.6-0.6-0.9c-0.4-0.6-0.6-1.3-0.6-2c0-0.7,0.2-1.4,0.6-1.9c0.2-0.2,0.4-0.4,0.7-0.5
				c0.2-0.1,0.4,0,0.5,0.1l0.1,0.1l-0.4-0.6l1.2-1.4l2.7,3.6c0.1,0.1,0.2,0.2,0.3,0.3c0.2,0.2,0.5,0.3,0.7,0.1l0.1-0.1
				c0.2-0.2,0.2-0.5,0.2-0.7c-0.1-0.3-0.2-0.6-0.4-0.9l0.4-0.4C23.9,21.3,24.1,21.9,24.2,22.5z M21.3,25.1c0-0.1,0.1-0.2,0.1-0.4
				c0-0.3-0.1-0.6-0.3-0.9l-1.8-2.4l-0.1-0.1c0,0-0.1,0-0.2,0c-0.2,0-0.3,0.1-0.4,0.2s-0.2,0.3-0.2,0.5s0,0.4,0.1,0.7
				c0.1,0.5,0.4,1,0.7,1.4c0.1,0.2,0.3,0.4,0.5,0.6c0.2,0.2,0.3,0.3,0.5,0.5c0.2,0.2,0.5,0.4,0.8,0.4c0.1,0,0.1,0,0.2-0.1
				c0.1,0,0.1-0.1,0.2-0.2C21.2,25.3,21.3,25.2,21.3,25.1z"/>
			<path class="st0" d="M19.8,29.5c-0.1,0.4-0.2,0.8-0.4,1.2c-0.4,0-0.7,0.3-0.9,0.4c-0.2,0-0.4,0-0.6-0.1c-0.2-0.1-0.4-0.3-0.5-0.4
				c-0.2-0.2-0.4-0.4-0.7-0.7c-0.3-0.3-0.6-0.5-0.8-0.7c-0.2-0.2-0.4-0.3-0.6-0.4c-0.2-0.1-0.4-0.2-0.6-0.2s-0.4,0.2-0.5,0.4
				c-0.1,0.1-0.2,0.3-0.2,0.4l3.7,3.3l-0.9,1.6l-6.7-6c-0.1,0.6,0,1.2,0.3,1.7c0.3,0.5,0.7,1,1.3,1.3c0.2,0.1,0.4,0.2,0.6,0.2
				c0.1,0,0.1,0,0.2,0h0.1c-0.2,0.3-0.4,0.6-0.8,0.8c-0.3,0.1-0.7,0-1-0.2c-0.3-0.1-0.5-0.3-0.6-0.6C10,31.2,9.9,31,9.8,30.7
				c-0.1-0.3-0.2-0.7-0.2-1c-0.2-1.3,0.2-2.6,0.9-3.6l3,2.6c-0.4-0.5-0.7-1-1-1.5c-0.2-0.4-0.4-0.8-0.6-1.3
				c-0.2-0.4-0.3-0.8-0.3-1.2c0-0.3,0.1-0.7,0.2-1c0.1-0.1,0.1-0.2,0.2-0.3s0.2-0.1,0.3-0.2c0.2-0.1,0.5-0.1,0.7,0.1
				c0.2,0.1,0.4,0.3,0.5,0.6c0,0.2,0,0.4-0.1,0.6c-0.2,0.3-0.5,0.5-0.8,0.4c0,0.6,0.2,1.1,0.4,1.6c0.3,0.7,0.6,1.3,1.1,1.9l0.1-0.3
				l0.1-0.2c0.2-0.4,0.6-0.8,1-0.9c0.1,0,0.2,0,0.3,0c0.2,0,0.5,0.1,0.7,0.2c0.2,0.1,0.4,0.3,0.6,0.5c0.2,0.2,0.5,0.4,0.7,0.7
				c0.3,0.3,0.5,0.5,0.7,0.7c0.1,0.1,0.3,0.3,0.5,0.4c0.2,0.1,0.3,0.1,0.5,0.2C19.5,29.7,19.6,29.6,19.8,29.5z"/>
			<path class="st0" d="M17,76.9v1.8c-0.9-0.1-1.5-0.8-1.4-1.7v-0.1H17z"/>
			<path class="st0" d="M14.9,76.6v1.9c-0.8-0.2-1.3-1-1.1-1.9H14.9z"/>
		</g>
		<g>
			<path class="st2" d="M9.5,23c9-13.4,24.3-22.1,41.6-22.1c27.7,0,50.2,22.5,50.2,50.2c0,4.2-0.5,8.4-1.5,12.3
				c-3.2,12.5-11,23.2-21.6,30c-7.8,5-17.1,7.9-27.1,7.9c-16.5,0-31.1-7.9-40.2-20.2c-6.3-8.4-10-18.8-10-30C0.9,40.7,4.1,31,9.5,23
				z"/>
			<path class="st2" d="M80,69.2c-9.4,15.1-28.9,20.4-44.7,12.2"/>
			<path class="st2" d="M56.6,17.4c5.6,0.9,11,3.2,15.5,6.8"/>
			<path class="st3" d="M19,62.8c-6.3-17.3,2.6-37,19.8-43.6"/>
		</g>
	</g>
</g>
</svg>
