<?xml version="1.0" encoding="utf-8"?>
<!-- Generator: Adobe Illustrator 24.3.0, SVG Export Plug-In . SVG Version: 6.00 Build 0)  -->
<svg version="1.1" id="Слой_1" xmlns="http://www.w3.org/2000/svg" xmlns:xlink="http://www.w3.org/1999/xlink" x="0px" y="0px"
	 viewBox="0 0 102 102" style="enable-background:new 0 0 102 102;" xml:space="preserve">
<style type="text/css">
	.st0{fill:none;stroke:#000000;stroke-width:2;stroke-miterlimit:10;}
	.st1{fill-rule:evenodd;clip-rule:evenodd;}
	.st2{fill:none;stroke:#1D1D1B;stroke-width:2;}
</style>
<path class="st0" d="M19.1,62.7"/>
<path class="st1" d="M48.1,57.4c0.5,0.1,0.9,0.2,1.4,0.4c7.2-2,14.6-3.5,22.1-4.4l-1.9-0.2C62.4,54.1,55.2,55.5,48.1,57.4L48.1,57.4
	L48.1,57.4z M13.8,76.6h1.1v1.9C14.1,78.3,13.6,77.5,13.8,76.6L13.8,76.6z M37,67c-0.4,0-0.8-0.3-1-0.6c0.4,0,0.6-0.3,0.6-0.7
	c0-0.3-0.2-0.5-0.4-0.6c0.4-0.4,1.1-0.4,1.6,0c0.4,0.4,0.4,1.1,0,1.6C37.5,66.9,37.3,67,37,67z M79.3,59.5c1.7-1.3,2.7-2.8,2.4-3.2
	c-0.4-0.5-2,0.3-3.7,1.6s-2.7,2.8-2.4,3.2C76,61.6,77.6,60.8,79.3,59.5z M82.2,52.6c0.4,0,0.6,0.3,0.6,0.6c0,0.4-0.3,0.6-0.6,0.6
	c-0.4,0-0.6-0.3-0.6-0.6l0,0C81.6,52.9,81.9,52.6,82.2,52.6z M77.8,47.8h-0.9c0.4-3.5-0.4-5.9-2.3-7.6l0.3-0.7
	C77.3,41.2,78,43.7,77.8,47.8L77.8,47.8z M15.6,76.9H17v1.8c-0.9-0.1-1.5-0.8-1.4-1.7C15.6,77,15.6,76.9,15.6,76.9z M51.7,55
	l0.5-0.1c1.9-3.4,6.8-7.7,12.7-12.4l0.2,0.1l0.1,0.1C65,42.9,65,43.1,65,43.3c0,0.9,0.7,1.6,1.5,1.6l0,0c-4.4,3.2-8.4,6-11,9
	l0.6-0.1c2.3-2.6,6.2-5.5,10.6-8.6l0.1,0.2c-0.2,0.3-0.3,0.6-0.3,0.9c0,0.7,0.4,1.3,1,1.5c-3.4,1.9-6.2,3.4-8.3,5.3l1.1-0.3
	c2.4-1.8,5-3.3,7.7-4.6v0.1c-0.2,0.3-0.3,0.6-0.3,0.9c0,0.8,0.6,1.4,1.3,1.6l0.1,0.2c7-1.5,11.4-2.4,15.3-8.5
	c2.4-4.9,0.9-8.7-4.2-11.6c-0.7-0.3-1.4-0.6-2.1-0.9c1.6,1,3.1,2.1,4.5,3.4c-0.2,0.6-0.1,1.3,0.1,1.9c0.3,1.1,0.8,1.9,1.2,1.8
	c0.4-0.1,0.4-0.7,0.4-1.4c1.3,2.9-0.2,6.3-4.6,10.8c1.5-12.6-6.9-10.4-9.4-13.3c-2.2-0.5-3.6-1.3-4-2.2c-2.3-0.1-3.5-0.9-3.9-2.2
	l-2.2-0.2L59.5,28l1.1-0.2c-2.5-1.2-5.4-1.8-8.2-1.6c5.9-1.8,9.9,2.6,21.2,3h0.1c0.2-0.9-0.2-1.8-0.9-2.3c3.5-2,8.8,1.2,12.3-2.2
	c1.8,2.4,2.1,5.7,1.1,9.8L86,34.3c1.7,1.7,2.7,4,3,6.3l0,0c-0.8-1.7-1.1-2.3,0.1,0.5l0,0c0.3,4.3-1,8.6-3.5,12
	c-0.1,0.2-0.3,0.3-0.5,0.3c-0.3,0-0.5-0.2-0.5-0.5c0-0.2,0.1-0.3,0.2-0.4c2.6-3.3,3.8-7.5,3.4-11.7l-0.7-0.2
	c0.1,0.4,0.2,0.8,0.2,1.3c0,1.1-0.3,1.9-0.8,1.9c-0.3,0-0.5-0.3-0.6-0.8c-0.2,0.5-0.3,1.1-0.6,1.6c0.1,0,0.1,0,0.2,0
	c0.4,0,0.6,0.7,0.5,1.5s-0.5,1.3-0.8,1.3c-0.4,0-0.6-0.6-0.6-1.3c-0.4,0.7-0.8,1.4-1.3,2.1c0.2-0.1,0.4-0.2,0.7-0.1
	c0.4,0.2,0.1,1.2-0.7,2.2c-0.8,1-1.8,1.7-2.3,1.5c-0.4-0.2-0.2-0.8,0.2-1.5L79,52.1c0.3,0,0.6,0.2,0.9,0.4c0.5,1.1,0.1,2.3-1,2.8
	c-0.6,0.3-1.4,0.3-2-0.1c-0.5-0.5,0-2.4-1.6-1c-0.5,0.4-0.7,1.1-0.3,1.6c0.2,0.2,0.6,0.3,0.9,0.3c-0.4,1.4-1.4,2.6-2.7,3.3
	c-2.6,1.5-5.8,1.7-7.2,0.4c-0.4-0.3-0.6-0.8-0.6-1.2l0,0c-1.2-0.8-2.6-1.1-4-0.9c3,1.8-7,3.2-9.6,1.4c0.9,0.9,1.6,2.1,2,3.3l0,0
	c8.2-1.2,13.3,1,23.7,0.8c2.3,0.1,3.8-1,4.8-3.1l0.3,0.7c-2.2,2.9-5.4,5.1-11.4,5.4h1.2c0.2,2.1-0.2,4.2-1.3,6
	c-4.6-0.1-7.3-0.8-9.1-1.8l0,0C55.6,72.9,50.3,74,46.8,73l1.8-0.6c2.1-1.1,3.6-3.1,4-5.5c0.6-2.9-0.6-5.8-2.9-7.5l-0.9,0.1
	c-4.1,1.2-7.8,3.7-10.2,7.2l-0.2,0.1c0-0.2,0.1-0.4,0.1-0.5c0.1-0.9-0.5-1.8-1.4-1.9s-1.8,0.5-1.9,1.4c0,0.1,0,0.3,0,0.4
	c0,0.4,0.2,0.9,0.4,1.2l0,0c-4,0.8-7.6,1.9-8.7,2.8c-0.6,0.4-0.5,0.6,0.4,0.5c1.9-0.7,3.9-1.3,5.9-1.7c2.6-0.6,5.2-1,7.9-1.1
	c0.5,0,0.7,0.2,0.1,0.3c-3,0.3-6,0.8-9,1.4l0,0c-2.3,0.5-4.5,1.4-6.5,2.6c-0.3,0.3-0.2,0.5,0,0.6l0.7-0.1c3.1-0.7,9.5-2.6,11.3-2.2
	l0,0c0,0.6,1.6,0.4,1.8,0.3l0,0c0.5-0.1,1.1-0.2,1.6-0.4c1.1-0.2,2.1-0.8,2.9-1.6h0.1c1.5,3.2-14.4,6.2-18.3,8.9
	c3.9-0.1,6.3-0.8,7.6-2c9.2,0.7,16.9-7.3,13.2-11.8c-1-1.6-0.3-1.6,0.9-0.4c3.7,4.4-3,12.5-13.3,13.5l-8.4,2l0,0
	c-4.3,1-10,1.8-12.4,0.8c-0.8-0.8-0.8-1.2,0.3-1.5c0.1,2,6,0.5,13.8-2.4L24,75.1v1.4h-3.1v-1.9c-2.6,0.5-5.8,0.2-6.5-1.7
	c4.3-5.3,11.8-9.6,21.6-13.1c-6.3,2.6-12.2,6.3-17.3,10.9c-0.5,1.3,0.2,1.4,1.7,0.1c6-6.2,13.4-9.8,20.8-12.8c2.5-0.8,5.2-1.6,8-2.3
	c2.6-5.2,7-9.6,13.2-14.7l0.1,0.1c0,0.9,0.7,1.6,1.6,1.6C58.7,46.8,54,51,51.7,55L51.7,55z M41.5,13.9c-0.2,4.1,2.4,7,3.8,10.5
	c-5.3,1.2-12.2,10.2-17,10.3c5.7,4.3,14.2-1.3,23.5-3.2c19.6,1.9,27.5,7.2,26.8,15.7l0.5-0.7c-1.3-18.7-29-11.5-28-20.1
	c0.6-1.3,2-1.6,4.3-1.1l0,0c-1.2-1.2-2.2-2.5-2.9-4c1.1,1.5,2.3,2.9,3.7,4.2l0,0c0.2,0.1,0.4,0.1,0.7,0.2
	C50.5,15.1,44.5,8.8,38.7,5.2C38.7,8.6,39.2,11.7,41.5,13.9z M50.3,29.4c-4,0.7-7.8,2.3-11.2,4.6c4-1.8,7.6-3.2,11.5-3.4L50.3,29.4z
	 M71.9,31.5c-0.2,0-0.4,0.2-0.4,0.4s0.2,0.4,0.4,0.4c0.2,0,0.4-0.2,0.4-0.4C72.2,31.7,72.1,31.5,71.9,31.5L71.9,31.5z M74.4,32.6
	c-0.2,0-0.4,0.2-0.4,0.4s0.2,0.4,0.4,0.4l0,0c0.2,0,0.4-0.2,0.4-0.4S74.6,32.6,74.4,32.6z M76.8,34.7c-0.2,0-0.4,0.2-0.4,0.4l0,0
	c0,0.2,0.2,0.4,0.4,0.4c0.2,0,0.4-0.2,0.4-0.4C77.2,34.9,77,34.7,76.8,34.7z M78.8,36.9c-0.2,0-0.3,0.2-0.3,0.4s0.1,0.3,0.3,0.3
	c0.2,0,0.4-0.1,0.4-0.3S79.1,36.9,78.8,36.9C78.9,36.9,78.9,36.9,78.8,36.9z M75.8,28.5c0.1,0,0.1-0.2,0.1-0.5
	c0-0.2-0.2-0.4-0.3-0.4c-0.1,0-0.1,0.2-0.1,0.5C75.6,28.4,75.7,28.5,75.8,28.5z M77.1,28.8c0.1,0,0.2-0.3,0.1-0.6
	c-0.1-0.3-0.2-0.5-0.3-0.5s-0.2,0.3-0.1,0.6S77,28.8,77.1,28.8z M78.5,29.3c0.2,0,0.2-0.4,0.2-0.8s-0.3-0.7-0.4-0.7
	c-0.2,0-0.2,0.4-0.2,0.8C78.2,29.1,78.3,29.4,78.5,29.3z M79.7,29.7c0.2,0,0.3-0.4,0.2-0.9c-0.1-0.5-0.3-0.8-0.5-0.8
	s-0.3,0.4-0.2,0.9C79.3,29.4,79.6,29.8,79.7,29.7z M81,30.2c0.4-1,0.3-1.7-0.3-2.1L80.4,28c0.5,0.7,0.5,1.6,0.1,2.3L81,30.2z
	 M82.6,30.9c0.2-1,0.1-2.1-0.4-3l-0.3-0.1c0.4,1,0.5,2,0.3,3L82.6,30.9z M84,32c0.3-1.6,0.2-3.3-0.5-4.9l-0.4,0.3
	c0.5,1.4,0.7,2.9,0.5,4.3L84,32L84,32z M85.3,33.2c0.6-3,0.4-5.6-0.5-6.8l-0.4,0.4c1,1.5,1.1,3.2,0.6,6
	C84.9,32.9,85.3,33.2,85.3,33.2z M55.3,70l0.1-2.2c4.8-5.2,13.9-2.1,18.5-3c-6.4,0-9.9-1.1-14.5,0.1l-4.5,1.3
	c1.8-3,6.9-3.1,13.3-2.2c-11.2-2.5-12.3,1.2-14.1,0.3c0.1,0.8,0,1.6-0.1,2.3c-0.4,2.1-1.5,4-3.3,5.2l0,0c6.3-0.3,12.5-2.1,18.1-5.2
	C61.5,66.6,57.7,66.3,55.3,70L55.3,70z M64.8,69.7l-0.5,0.5l5.4,1.5l0.4-0.5L64.8,69.7z M67.4,68.6L66.9,69l3.4,1l0.6-0.5L67.4,68.6
	L67.4,68.6z M70,67.3l-0.5,0.5l1.4,0.4l0.6-0.4C71.4,67.8,70,67.3,70,67.3z M47.7,58.4c-0.2-0.1-0.5-0.1-0.7-0.2
	c-0.4-0.1-0.9-0.1-1.3-0.1c-6.7,2.2-11.6,5-14.2,8.5l1.8,0.1C34.6,63.9,39.8,60.9,47.7,58.4z M83.6,56.3l-1.1,3.3l0.6-0.2l1.6-3.5
	C84.2,55.8,83.9,55.8,83.6,56.3L83.6,56.3z M26.5,68.8c-0.5,0.1-0.8,0.4-0.8,0.5c0.1,0.2,0.5,0.2,0.9,0c0.5-0.2,0.8-0.4,0.8-0.5
	C27.4,68.6,27,68.6,26.5,68.8z M16.1,73l-0.3,0.2c1,1.1,2.8,1.1,5.6,0l-0.2-0.5C18.9,73.6,17.1,73.8,16.1,73L16.1,73z M23.9,74.3
	v-0.8h-0.1c-0.6,0.3-1.2,0.6-1.9,0.7L23.9,74.3z M27.8,75.7c1.1-0.4,2.2-0.8,3.4-1.3h-3.4l0,0V75.7L27.8,75.7z M31.5,74.2
	c1.8-0.7,3.6-1.5,5.4-2.2h-2l-0.1,0.9l-3.4-0.2L31.5,74.2L31.5,74.2z M82,47.8c-0.3,0-0.5,0.2-0.5,0.5s0.2,0.5,0.5,0.5
	s0.5-0.2,0.5-0.5l0,0C82.4,48,82.2,47.8,82,47.8z M77.9,50.4c-0.3,0-0.5,0.2-0.5,0.5s0.2,0.5,0.5,0.5l0,0c0.3,0,0.5-0.2,0.5-0.5
	C78.4,50.6,78.2,50.4,77.9,50.4z M73.7,51.4c-0.3,0-0.5,0.2-0.5,0.5s0.2,0.5,0.5,0.5s0.5-0.2,0.5-0.5l0,0
	C74.2,51.6,74,51.4,73.7,51.4L73.7,51.4z M72.4,55c-0.4,0-0.7,0.3-0.7,0.7s0.3,0.7,0.7,0.7c0.4,0,0.7-0.3,0.7-0.7l0,0
	C73.1,55.3,72.8,55,72.4,55z M67.2,56.5c0.3,0,0.6,0.3,0.6,0.6s-0.3,0.6-0.6,0.6c-0.3,0-0.6-0.3-0.6-0.6S66.9,56.5,67.2,56.5z"/>
<path d="M18.5,31.1c-0.2,0-0.4,0-0.6-0.1s-0.4-0.3-0.5-0.4c-0.2-0.2-0.4-0.4-0.7-0.7c-0.3-0.3-0.6-0.5-0.8-0.7s-0.4-0.3-0.6-0.4
	c-0.2-0.1-0.4-0.2-0.6-0.2c-0.2,0-0.4,0.2-0.5,0.4c-0.1,0.1-0.2,0.3-0.2,0.4l3.7,3.3l-0.9,1.6l-6.7-6c-0.1,0.6,0,1.2,0.3,1.7
	s0.7,1,1.3,1.3c0.2,0.1,0.4,0.2,0.6,0.2c0.1,0,0.1,0,0.2,0h0.1c-0.2,0.3-0.4,0.6-0.8,0.8c-0.3,0.1-0.7,0-1-0.2
	c-0.3-0.1-0.5-0.3-0.6-0.6C10,31.2,9.9,31,9.8,30.7c-0.1-0.3-0.2-0.7-0.2-1c-0.2-1.3,0.2-2.6,0.9-3.6l3,2.6c-0.4-0.5-0.7-1-1-1.5
	c-0.2-0.4-0.4-0.8-0.6-1.3c-0.2-0.4-0.3-0.8-0.3-1.2c0-0.3,0.1-0.7,0.2-1c0.1-0.1,0.1-0.2,0.2-0.3c0.1-0.1,0.2-0.1,0.3-0.2
	c0.2-0.1,0.5-0.1,0.7,0.1c0.2,0.1,0.4,0.3,0.5,0.6c0,0.2,0,0.4-0.1,0.6c-0.2,0.3-0.5,0.5-0.8,0.4c0,0.6,0.2,1.1,0.4,1.6
	c0.3,0.7,0.6,1.3,1.1,1.9l0.1-0.3l0.1-0.2c0.2-0.4,0.6-0.8,1-0.9c0.3-0.1,0.7,0,1,0.2c0.2,0.1,0.4,0.3,0.6,0.5s0.5,0.4,0.7,0.7
	c0.3,0.3,0.5,0.5,0.7,0.7c0.1,0.1,0.3,0.3,0.5,0.4s0.3,0.1,0.5,0.2c0.2,0,0.3-0.1,0.5-0.2c-0.1,0.4-0.2,0.8-0.4,1.2
	C19,30.7,18.7,31,18.5,31.1z"/>
<path d="M20.4,27.4c-0.6,0-1.2-0.2-1.6-0.7c-0.2-0.2-0.5-0.4-0.7-0.7c-0.2-0.3-0.4-0.6-0.6-0.9c-0.4-0.6-0.6-1.3-0.6-2
	s0.2-1.4,0.6-1.9c0.2-0.2,0.4-0.4,0.7-0.5c0.2-0.1,0.4,0,0.5,0.1l0.1,0.1l-0.4-0.6l1.2-1.4l2.7,3.6c0.1,0.1,0.2,0.2,0.3,0.3
	c0.2,0.2,0.5,0.3,0.7,0.1l0.1-0.1c0.2-0.2,0.2-0.5,0.2-0.7c-0.1-0.3-0.2-0.6-0.4-0.9l0.4-0.4c0.3,0.5,0.5,1.1,0.6,1.7
	c0.1,0.4,0,0.8-0.1,1.2c-0.1,0.3-0.2,0.5-0.4,0.7c-0.2,0.3-0.5,0.4-0.8,0.5c-0.3,0-0.7-0.1-0.9-0.3c0,0.4,0,0.8,0,1.2
	s-0.2,0.8-0.5,1.1S20.8,27.4,20.4,27.4z M21.3,25.1c0-0.1,0.1-0.2,0.1-0.4c0-0.3-0.1-0.6-0.3-0.9l-1.8-2.4l-0.1-0.1c0,0-0.1,0-0.2,0
	c-0.2,0-0.3,0.1-0.4,0.2s-0.2,0.3-0.2,0.5s0,0.4,0.1,0.7c0.1,0.5,0.4,1,0.7,1.4c0.1,0.2,0.3,0.4,0.5,0.6s0.3,0.3,0.5,0.5
	s0.5,0.4,0.8,0.4c0.1,0,0.1,0,0.2-0.1c0.1,0,0.1-0.1,0.2-0.2C21.2,25.3,21.3,25.2,21.3,25.1z"/>
<path d="M27.2,20.1c0,0.6-0.3,1.1-0.8,1.5c-0.4,0.3-0.9,0.5-1.3,0.4c-0.6-0.1-1-0.5-1.3-1c-0.6-0.8-1-1.8-1.1-2.8
	c-0.1-0.5,0-1.1,0.2-1.6s0.5-0.9,0.9-1.2c0.6-0.4,1-0.4,1.3-0.1l-1.3-2.8l1.3-1.3l1.3,2.9c0.1-0.5,0.4-1,0.9-1.3
	c0.9-0.6,1.7-0.4,2.5,0.7c0.5,0.6,0.8,1.3,1.1,2c0.2,0.6,0.3,1.3,0.2,2c-0.2,0.7-0.6,1.3-1.1,1.6c-0.3,0.3-0.7,0.4-1.1,0.3l1.3,3
	L29,23.8L27.2,20.1z M26.5,19.8c0.1-0.1,0.1-0.3,0.1-0.5s0-0.4-0.1-0.6l-1.4-3c-0.2-0.2-0.5-0.2-0.7,0l0,0c-0.2,0.2-0.4,0.5-0.4,0.8
	c0,0.4,0,0.7,0.1,1.1c0.1,0.3,0.2,0.6,0.3,0.9c0.1,0.3,0.2,0.6,0.4,0.8l0.2,0.4c0.1,0.2,0.3,0.4,0.5,0.5c0.1,0.1,0.2,0.1,0.3,0.1
	c0.1,0,0.2-0.1,0.3-0.1C26.4,20,26.5,19.9,26.5,19.8z M29.4,17.3c0-0.5-0.1-1-0.3-1.4c-0.2-0.5-0.5-1-0.8-1.4
	c-0.4-0.6-0.8-0.7-1.2-0.5c-0.3,0.3-0.4,0.6-0.3,1l1.5,3.4c0.2,0.1,0.4,0.1,0.6-0.1C29.2,18,29.4,17.7,29.4,17.3z"/>
<path d="M33.4,16.3c-0.5-0.2-1-0.7-1.2-1.2c-0.1-0.3-0.2-0.5-0.3-0.8c-0.1-0.3-0.2-0.7-0.2-1c0-0.4,0-0.8,0-1.1s0.1-0.7,0.2-1
	c0.2-0.7,0.8-1.4,1.5-1.7c0.4-0.2,0.8-0.3,1.2-0.1c0.3,0.1,0.5,0.4,0.6,0.7c0.2,0.3,0.2,0.7,0.2,1c0,0.4-0.1,0.7-0.2,1.1
	c-0.2,0.3-0.4,0.7-0.6,0.9c-0.3,0.3-0.6,0.5-0.9,0.7c0.1,0.2,0.1,0.4,0.2,0.5c0.2,0.4,0.4,0.6,0.6,0.7c0.2,0.1,0.5,0,0.7-0.1
	c0.4-0.2,0.8-0.5,1-0.9c0.1-0.2,0.2-0.4,0.3-0.5c0.1-0.2,0.2-0.4,0.2-0.7l0.4-0.2c-0.1,0.7-0.2,1.4-0.6,2.1c-0.4,0.7-1,1.2-1.7,1.6
	C34.5,16.3,33.9,16.4,33.4,16.3z M34.1,12.6c0.2-0.2,0.3-0.4,0.3-0.7c0.1-0.3,0.1-0.5,0.1-0.8s-0.1-0.5-0.2-0.8
	c0-0.1-0.1-0.2-0.2-0.3c-0.1-0.1-0.2-0.1-0.3,0c-0.2,0.1-0.3,0.2-0.3,0.4c-0.1,0.2-0.1,0.5-0.1,0.8s0,0.6,0,0.9c0,0.3,0.1,0.7,0.2,1
	C33.7,13,33.9,12.8,34.1,12.6L34.1,12.6z"/>
<path d="M55.8,96.3c-0.2-0.1-0.4-0.2-0.5-0.3c-0.1-0.2-0.2-0.3-0.2-0.5s0-0.4,0.1-0.7c0.1,0.1,0.3,0.3,0.4,0.3
	c0.1,0.1,0.3,0.1,0.5,0.1s0.4-0.1,0.6-0.3c0.2-0.2,0.3-0.4,0.4-0.6c0.1-0.2,0.1-0.5,0.2-0.7c0-0.3,0-0.5,0-0.8
	c0-0.4-0.1-0.8-0.4-1.1c-0.3-0.3-0.6-0.4-1-0.4c-0.2,0-0.4,0.1-0.6,0.2l-0.6,4.8l-1.9,0.2l1-8.8c-0.2,0-0.5,0.1-0.7,0.2
	s-0.4,0.3-0.5,0.5c-0.3,0.7-0.4,1.4-0.3,2.1c0,0.2,0.1,0.4,0.2,0.6c0,0,0,0.1,0.1,0.1v0.1c-0.4,0.1-0.7,0-1.1-0.2
	c-0.3-0.2-0.4-0.6-0.5-0.9c0-0.4,0-0.9,0.1-1.3s0.4-0.8,0.7-1.1c0.4-0.4,0.8-0.7,1.3-0.9c0.6-0.3,1.3-0.4,2-0.5h0.5H56h1
	c0.2,0,0.5,0,0.7,0c0.4,0,0.8-0.1,1.2-0.3c0,0,0,0.1,0,0.3s0,0.3,0,0.4s-0.1,0.2-0.1,0.3c-0.1,0.4-0.5,0.6-0.9,0.7
	c-0.7,0.1-1.5,0.1-2.2,0l-0.4,3c0.3-0.1,0.5-0.2,0.7-0.2c0.2-0.1,0.4-0.1,0.6-0.1c0.6-0.1,1.3,0.1,1.7,0.5c0.2,0.2,0.4,0.5,0.5,0.7
	c0.1,0.3,0.2,0.6,0.2,0.9c0,0.2,0,0.5,0,0.7c0,0.3-0.1,0.5-0.1,0.8c-0.1,0.3-0.2,0.5-0.3,0.8c-0.2,0.2-0.3,0.4-0.6,0.6
	c-0.4,0.4-0.9,0.7-1.5,0.8C56.3,96.4,56,96.3,55.8,96.3z"/>
<path d="M61.7,94.9c-0.5-0.3-0.9-0.8-1-1.4c-0.1-0.3-0.2-0.6-0.2-0.9s0-0.7,0-1c0-0.7,0.2-1.4,0.5-2s0.9-1.1,1.6-1.3
	c0.3-0.1,0.5-0.1,0.8-0.1c0.2,0,0.3,0.2,0.4,0.4v0.1L63.7,88l1.8-0.6l0.4,4.5c0,0.1,0,0.3,0.1,0.4c0,0.3,0.3,0.4,0.5,0.4h0.1
	c0.2-0.1,0.4-0.3,0.5-0.5c0.1-0.3,0.2-0.6,0.1-0.9l0.5-0.2c0,0.6-0.1,1.2-0.3,1.7c-0.2,0.4-0.4,0.7-0.7,0.9
	c-0.2,0.2-0.5,0.3-0.7,0.4c-0.3,0.1-0.6,0.1-0.9,0c-0.3-0.2-0.5-0.4-0.6-0.7c-0.1,0.4-0.3,0.7-0.5,1c-0.3,0.3-0.6,0.6-1,0.7
	C62.5,95.2,62.1,95.1,61.7,94.9z M63.7,93.4c0.1-0.1,0.2-0.2,0.2-0.3c0.2-0.3,0.2-0.7,0.2-1l-0.3-3c0,0,0-0.1-0.1-0.1
	c-0.1-0.2-0.4-0.3-0.6-0.2c-0.2,0.1-0.3,0.2-0.4,0.3c-0.1,0.2-0.2,0.4-0.3,0.6c-0.2,0.5-0.2,1-0.2,1.6c0,0.3,0,0.5,0.1,0.8
	c0,0.2,0.1,0.5,0.1,0.7c0.1,0.3,0.2,0.6,0.5,0.8c0.1,0,0.1,0.1,0.2,0.1c0.1,0,0.1,0,0.2,0C63.5,93.5,63.6,93.4,63.7,93.4L63.7,93.4z
	"/>
<path d="M67.1,86.2l1.7-0.9l0.3,1c0.2-0.5,0.6-1,1.1-1.2c0.4-0.2,0.8-0.3,1.2-0.1c0.5,0.3,0.9,0.7,1.1,1.2c0.3,0.6,0.5,1.2,0.7,1.9
	c0.2,0.7,0.2,1.3,0,2s-0.7,1.3-1.4,1.6c-0.2,0.1-0.5,0.2-0.7,0.2s-0.3,0-0.5-0.1l0.8,3.1l-1.5,1.3L67.1,86.2z M71.5,89.8
	c0-0.5,0-1-0.1-1.5s-0.3-0.9-0.5-1.4c-0.1-0.3-0.3-0.5-0.6-0.7c-0.2,0-0.3,0-0.5,0.1c-0.1,0.1-0.3,0.2-0.3,0.4
	c-0.1,0.2-0.2,0.4-0.2,0.6l1,3.6c0.1,0.1,0.2,0.1,0.2,0.1c0.1,0,0.2,0,0.3-0.1C71.2,90.7,71.4,90.3,71.5,89.8L71.5,89.8z"/>
<path d="M72.7,83.1l1.5-1.1l0.4,0.9c0.1-0.5,0.4-1,0.9-1.3c0.3-0.3,0.7-0.4,1.2-0.3c0.5,0.2,1,0.5,1.3,1c0.4,0.5,0.8,1.1,1,1.7
	c0.3,0.6,0.4,1.3,0.3,2s-0.5,1.4-1.2,1.8c-0.2,0.2-0.4,0.3-0.7,0.3c-0.2,0-0.3,0-0.5,0l1.4,2.9l-1.2,1.5L72.7,83.1z M77.6,85.9
	c0-0.5-0.2-1-0.4-1.5c-0.2-0.4-0.4-0.9-0.7-1.3c-0.2-0.3-0.4-0.5-0.7-0.6c-0.2,0-0.3,0-0.4,0.1s-0.2,0.3-0.3,0.4c0,0.2,0,0.4,0,0.6
	l1.6,3.4c0.1,0,0.2,0.1,0.3,0.1c0.1,0,0.2-0.1,0.3-0.1C77.5,86.8,77.7,86.4,77.6,85.9z"/>
<path d="M82.1,84c-0.6,0-1.1-0.3-1.5-0.7c-0.2-0.2-0.4-0.5-0.6-0.7c-0.2-0.3-0.4-0.6-0.5-0.9c-0.3-0.6-0.5-1.3-0.6-2
	c0-0.7,0.2-1.4,0.7-1.9c0.2-0.2,0.4-0.4,0.7-0.5c0.2,0,0.4,0,0.5,0.1l0.1,0.1l-0.4-0.6l1.3-1.4l2.6,3.7c0.1,0.1,0.2,0.2,0.3,0.3
	c0.2,0.2,0.4,0.3,0.7,0.1l0.1-0.1c0.2-0.2,0.2-0.5,0.2-0.7c-0.1-0.3-0.2-0.6-0.4-0.9l0.4-0.4c0.3,0.5,0.5,1.1,0.6,1.7
	c0,0.4,0,0.8-0.2,1.2c-0.1,0.3-0.3,0.5-0.5,0.7s-0.5,0.4-0.8,0.4s-0.7-0.1-0.9-0.3c0.1,0.4,0.1,0.7,0.1,1.1s-0.2,0.8-0.5,1.1
	C83,83.8,82.6,84,82.1,84z M83.1,81.7c0-0.1,0-0.3,0-0.4c0-0.3-0.1-0.6-0.3-0.9l-1.7-2.5L81,77.8h-0.2c-0.2,0-0.3,0.1-0.4,0.2
	s-0.2,0.3-0.2,0.5s0,0.4,0,0.7c0.1,0.5,0.3,1,0.6,1.4c0.1,0.2,0.3,0.4,0.5,0.7c0.1,0.2,0.3,0.4,0.5,0.5c0.2,0.2,0.5,0.4,0.8,0.4
	c0.1,0,0.1,0,0.2-0.1l0.2-0.2C83,81.9,83.1,81.8,83.1,81.7z"/>
<path d="M89.4,75.3c-0.4,0.1-0.8,0-1.1-0.2c-0.2-0.1-0.4-0.3-0.5-0.4l-0.1-0.1c-0.1-0.1-0.1-0.1-0.1-0.1c-0.1-0.1-0.1-0.1-0.2-0.2
	c-0.4-0.3-0.7-0.3-0.9,0c-0.1,0.1-0.1,0.2-0.1,0.4V75v0.3l2,2l-1,1.6l-4.7-4.7l1-1.6l1.8,1.9c-0.1-0.4-0.2-0.8-0.3-1.1v-0.1
	c-0.2-0.7-0.3-1.2-0.4-1.4c-0.1-0.3-0.1-0.7,0-1c0-0.1,0.1-0.3,0.2-0.4c0.1-0.2,0.3-0.4,0.6-0.4c0.4,0,0.9,0.2,1,0.7
	c0,0.2,0,0.5-0.1,0.6c-0.1,0.2-0.3,0.3-0.5,0.3s-0.3,0-0.5-0.1c0,0.2,0,0.3,0,0.5s0.1,0.3,0.1,0.5v0.2l0.1,0.4
	c0.1,0.2,0.1,0.4,0.1,0.5c0.1-0.2,0.2-0.3,0.3-0.5c0.2-0.4,0.5-0.6,0.9-0.7c0.3,0,0.6,0.1,0.9,0.3c0.2,0.1,0.3,0.3,0.5,0.4l0.2,0.2
	l0.3,0.2c0.2,0.2,0.5,0.1,0.6-0.1c0,0,0-0.1,0.1-0.1c0.1-0.1,0.1-0.2,0.1-0.3c0-0.1,0-0.2,0-0.3c0-0.1-0.1-0.3-0.2-0.4l-0.3-0.5
	l0.3-0.5c1,1.3,1.3,2.4,0.7,3.3C90.2,74.9,89.8,75.2,89.4,75.3z"/>
<path d="M95.4,71.6c-0.1,0.1-0.2,0.2-0.4,0.3C94.8,72,94.7,72,94.5,72s-0.4,0-0.5-0.1c-0.5-0.2-0.8-0.6-0.9-1.1s-0.1-1,0-1.6
	l-0.6-0.4c0.2,0.3,0.2,0.7,0.2,1s-0.1,0.5-0.2,0.7c-0.1,0.3-0.4,0.6-0.7,0.8c-0.4,0.1-0.9,0.1-1.2-0.1c-0.3-0.1-0.5-0.3-0.7-0.4
	l-3.5-2.4l0.7-1.7l3.7,2.6c0.1,0.1,0.2,0.1,0.3,0.2c0.1,0.1,0.3,0.1,0.4,0.1s0.2-0.1,0.3-0.2c0.1-0.2,0.1-0.5,0-0.7
	c-0.1-0.3-0.3-0.5-0.5-0.7l-3.5-2.5l0.7-1.7l5,3.6c0-0.4-0.1-0.8-0.3-1.2c-0.2-0.4-0.5-0.8-0.9-1.1l0.2-0.5c0.5,0.4,1,1,1.2,1.7
	c0.1,0.5,0.2,0.9,0.1,1.4l0.8,0.5c0.6,0.4,1.1,0.9,1.3,1.6c0.1,0.5,0,1-0.2,1.4C95.6,71.3,95.5,71.5,95.4,71.6z M94.6,70.5
	c-0.2-0.3-0.4-0.5-0.7-0.7l-0.3-0.2c0,0.3,0,0.7,0.1,1c0,0.3,0.2,0.5,0.5,0.6c0.1,0,0.2,0,0.3,0c0.1,0,0.2-0.1,0.3-0.3
	C94.7,70.8,94.7,70.6,94.6,70.5z"/>
<path d="M98.3,63.6c-0.1,0.2-0.2,0.3-0.3,0.4c-0.1,0.1-0.3,0.2-0.5,0.2s-0.4,0-0.6,0c-0.5-0.1-0.9-0.5-1.1-1s-0.3-1-0.3-1.5L95,61.3
	c0.3,0.5,0.5,1.1,0.3,1.7c-0.1,0.4-0.3,0.8-0.7,1.1c-0.5,0.3-1.1,0.3-1.7,0.1c-0.3-0.1-0.6-0.2-0.9-0.3s-0.6-0.3-0.9-0.5
	c-0.6-0.4-1.1-0.9-1.5-1.5s-0.5-1.3-0.3-2c0-0.3,0.2-0.5,0.4-0.7c0.1-0.1,0.3-0.2,0.5-0.2h0.1l-0.6-0.3l0.4-1.8l5.6,2.6
	c0-0.4-0.2-0.7-0.4-1c-0.3-0.4-0.7-0.7-1.1-0.9l0.1-0.5c0.6,0.3,1.1,0.8,1.5,1.4c0.2,0.4,0.3,0.9,0.3,1.4l0.9,0.4
	c0.7,0.3,1.2,0.7,1.5,1.4c0.2,0.4,0.2,0.9,0.1,1.4C98.5,63.2,98.4,63.4,98.3,63.6z M94.2,61.3c-0.1-0.3-0.4-0.5-0.6-0.6l-2.8-1.3
	c0,0-0.1,0-0.2,0s-0.1,0-0.2,0c-0.1,0.1-0.3,0.2-0.3,0.4c-0.1,0.2-0.1,0.4,0,0.5c0.1,0.2,0.2,0.4,0.4,0.6c0.4,0.4,0.8,0.7,1.3,0.9
	c0.2,0.1,0.5,0.2,0.7,0.4c0.2,0.1,0.4,0.2,0.7,0.2c0.3,0.1,0.6,0.1,0.9,0c0.1,0,0.1-0.1,0.2-0.2c0-0.1,0.1-0.1,0.1-0.2
	C94.3,61.7,94.3,61.5,94.2,61.3z M97.3,62.6c-0.2-0.2-0.5-0.4-0.8-0.5L96.2,62c0,0.3,0.1,0.6,0.2,1c0.1,0.3,0.3,0.5,0.6,0.5
	c0.1,0,0.2,0,0.3,0c0.1-0.1,0.2-0.2,0.2-0.3C97.5,63,97.4,62.8,97.3,62.6L97.3,62.6z"/>
<path d="M96.2,56.3c-0.5,0.4-1.1,0.5-1.6,0.5c-0.3,0-0.7-0.1-1-0.1c-0.3-0.1-0.7-0.2-1-0.3c-0.7-0.3-1.3-0.7-1.7-1.2
	c-0.5-0.5-0.7-1.2-0.7-1.9c0-0.3,0.1-0.5,0.2-0.8c0.1-0.2,0.3-0.3,0.5-0.2H91L90.2,52l0.1-1.9l4.4,1.2c0.2,0.1,0.3,0.1,0.5,0.1
	c0.4,0,0.6-0.1,0.6-0.5c0-0.3-0.1-0.5-0.3-0.7c-0.3-0.2-0.5-0.4-0.8-0.5v-0.5c0.6,0.2,1.1,0.5,1.5,0.9c0.3,0.3,0.5,0.6,0.6,1
	c0.1,0.3,0.1,0.5,0.1,0.8s-0.1,0.6-0.3,0.9c-0.3,0.2-0.6,0.3-0.9,0.4c0.3,0.2,0.6,0.5,0.8,0.8c0.2,0.3,0.3,0.8,0.3,1.2
	C96.7,55.6,96.5,56,96.2,56.3z M95.4,53.9c-0.1-0.1-0.1-0.2-0.2-0.3c-0.2-0.2-0.5-0.4-0.8-0.5l-2.9-0.8h-0.2l-0.2,0.1
	c-0.1,0.1-0.2,0.3-0.2,0.4c0,0.2,0,0.4,0.2,0.5c0.1,0.2,0.3,0.3,0.5,0.5c0.4,0.3,0.9,0.5,1.4,0.7c0.3,0.1,0.5,0.2,0.8,0.2
	c0.2,0,0.5,0.1,0.7,0.1c0.3,0.1,0.6,0,0.9-0.2c0.1,0,0.1-0.1,0.1-0.2c0-0.1,0-0.2,0-0.2C95.5,54.1,95.5,54,95.4,53.9L95.4,53.9z"/>
<circle class="st0" cx="51.1" cy="51.1" r="50.2"/>
<path class="st0" d="M80,69.2c-9.4,15.1-28.9,20.4-44.7,12.2"/>
<path class="st0" d="M56.6,17.4c5.6,0.9,11,3.2,15.5,6.8"/>
<g>
	<path class="st2" d="M19,62.8c-6.3-17.3,2.6-37,19.8-43.6"/>
</g>
</svg>
